<svg height="983.03998" viewBox="0 0 983.03998 983.03998" width="983.03998" xmlns="http://www.w3.org/2000/svg" xmlns:xlink="http://www.w3.org/1999/xlink"><clipPath id="a"><path d="m0 737.28h737.28v-737.28h-737.28z"/></clipPath><g transform="matrix(1.3333333 0 0 -1.3333333 0 983.04)"><path d="m0 0h737.28v737.28h-737.28z" fill="#cd8c2a"/><path d="m729.875 7.385h-722.47v722.509h722.47z" fill="#cd8c2a"/><g clip-path="url(#a)" fill="#fff"><path d="m0 0c-31.91 25.202-74.185 25.72-89.662 22.036l-1.798-.416c-17.88-4.223-46.282-11.211-79.525-52.464-.184-.228-.377-.465-.553-.702l-.42-.508c-.325-.461-.552-1-.552-1.605 0-.5.122-.956.359-1.381l.772-1.272c4.173-6.98 9.435-15.964 13.88-24.241.045-.088.088-.154.123-.255.474-.916 1.421-1.561 2.535-1.561.771 0 1.464.308 1.964.798.21.272.421.557.605.846 29.508 40.806 52.71 46.441 68.406 50.132l1.877.443c8.146 1.956 39.118 1.838 61.479-15.815 17.45-13.775 26.306-35.698 26.306-65.148 0-49.404-24.026-68.73-44.195-76.242-31.235-11.675-61.189 3.934-61.409 4.052l-1.342.653c-17.16 7.45-42.766 22.949-66.898 71.418-48.64 97.69-89.328 106.889-116.248 112.988l-1.439.32c-12.258 2.779-54.831 4.744-88.294-21.967-17.485-13.946-38.312-41.064-38.312-91.025 0-30.441 6.253-50.54 22.327-71.686 3.524-4.818 39.547-51.096 109.19-37.75 11.145 2.135 26.245 7.458 42.853 19.906l15.328-13.829c1-.908 2.596-.833 3.517.175.438.47.623 1.07.614 1.662v.206l11.057 68.021.008.754c-.008.662-.28 1.337-.823 1.811-.465.442-1.044.614-1.623.614l-.473-.045-.719-.074-65.153-18.239-1.184-.193c-.474-.101-.912-.347-1.245-.728-.947-1.035-.859-2.614.184-3.534l.763-.706 14.6-13.184c-9.427-6.103-17.643-8.905-23.912-10.119-50.387-9.611-75.264 23.391-76.211 24.684l-.351.482c-11.707 15.372-15.661 28.434-15.661 51.772 0 29.538 8.699 51.47 25.859 65.175 21.792 17.389 51.842 17.489 60.33 15.556l1.465-.329c22.063-4.994 52.289-11.829 93.923-95.463 21.625-43.419 48.712-71.808 82.797-86.781 4.34-2.214 25.035-12.027 51.894-12.027 11.233 0 23.535 1.715 36.154 6.406 19.757 7.375 65.714 32.568 65.714 107.266 0 49.93-21.142 77.105-38.881 91.113" stroke="#fff" stroke-miterlimit="10" stroke-width="4.753" transform="translate(551.989 355.0217)"/><path d="m0 0h.219v-111.514h24.492v145.673h-19.572l-22.545-26.429v-25.566h.21z" transform="translate(79.5248 634.9606)"/><path d="m0 0v-17.612h22.343v18.265c0 8.804 4.306 11.382 9.453 11.382 4.735 0 8.813-1.929 8.813-10.961v-12.022c0-12.039-1.07-16.762-9.032-25.141l-13.741-14.613c-13.32-14.183-18.275-23.636-18.275-38.035v-26.859h63.61v19.989h-40.188v6.87c0 11.391 4.087 15.688 10.312 22.348l15.688 16.543c12.68 13.534 15.477 22.136 15.477 36.745v14.175c0 20.848-10.092 30.726-32.015 30.726-21.493 0-32.445-11.386-32.445-31.8" transform="translate(118.8358 639.0334)"/><path d="m0 0v-24.115h3.796c3.523 0 5.055 1.717 5.055 5.058v14.088c0 3.341-1.532 4.969-5.055 4.969zm-10.294 8.397h15.26c10.39 0 14.18-5.147 14.18-13.725v-12.915c0-8.581-3.79-13.82-14.18-13.82h-4.966v-20.771h-10.294z" transform="translate(260.9728 660.8042)"/><path d="m0 0v-19.057h3.434c3.523 0 5.055 1.806 5.055 5.059v9.029c0 3.341-1.532 4.969-5.055 4.969zm0-24.747v-28.087h-10.294v61.231h14.993c10.384 0 14.18-5.147 14.18-13.725v-7.86c0-6.591-2.353-10.475-8.222-11.83l9.844-27.816h-10.836z" transform="translate(295.7227 660.8042)"/><path d="m0 0v32.874c0 3.701-1.628 6.32-5.329 6.32-3.612 0-5.239-2.619-5.239-6.32v-32.874c0-3.704 1.627-6.324 5.239-6.324 3.701 0 5.329 2.62 5.329 6.324m-20.863 1.625v29.621c0 9.574 4.699 16.53 15.534 16.53 10.931 0 15.623-6.956 15.623-16.53v-29.621c0-9.484-4.692-16.527-15.623-16.527-10.835 0-15.534 7.043-15.534 16.527" transform="translate(341.041 622.1502)"/><path d="m0 0c4.247 0 5.869 2.528 5.869 6.231v32.061c0 3.612-1.622 6.142-5.869 6.142h-4.337v-44.434zm16.164 36.394v-28.357c0-9.391-3.879-16.437-14.899-16.437h-15.896v61.231h15.896c11.02 0 14.899-6.953 14.899-16.437" transform="translate(371.817 616.3701)"/><path d="m0 0v-46.33c0-9.483-4.063-15.623-14.536-15.623-10.841 0-15.356 6.14-15.356 15.623v46.33h10.295v-47.321c0-3.615 1.443-6.054 5.061-6.054 3.612 0 5.056 2.439 5.056 6.054v47.321z" transform="translate(423.7221 669.2011)"/><path d="m0 0v29.622c0 9.573 4.514 16.529 15.356 16.529 11.375 0 14.536-6.324 14.536-15.353v-7.227h-9.392v8.038c0 3.793-1.265 5.961-4.966 5.961-3.7 0-5.24-2.619-5.24-6.321v-32.874c0-3.703 1.54-6.323 5.24-6.323 3.701 0 4.966 2.35 4.966 5.961v11.29h9.392v-10.568c0-8.759-3.612-15.261-14.536-15.261-10.842 0-15.356 7.042-15.356 16.526" transform="translate(429.5725 623.7747)"/><path d="m0 0v29.622c0 9.573 4.515 16.529 15.356 16.529 11.376 0 14.536-6.324 14.536-15.353v-7.227h-9.391v8.038c0 3.793-1.266 5.961-4.966 5.961-3.701 0-5.24-2.619-5.24-6.321v-32.874c0-3.703 1.539-6.323 5.24-6.323 3.7 0 4.966 2.35 4.966 5.961v11.29h9.391v-10.568c0-8.759-3.612-15.261-14.536-15.261-10.841 0-15.356 7.042-15.356 16.526" transform="translate(465.0471 623.7747)"/><path d="m500.522 669.201h10.294v-61.231h-10.294z"/><path d="m0 0v32.874c0 3.701-1.628 6.32-5.329 6.32-3.611 0-5.239-2.619-5.239-6.32v-32.874c0-3.704 1.628-6.324 5.239-6.324 3.701 0 5.329 2.62 5.329 6.324m3.071 51.387-16.163-2.075v5.779l16.163 3.431zm-23.934-49.762v29.621c0 9.574 4.699 16.53 15.534 16.53 10.931 0 15.624-6.956 15.624-16.53v-29.621c0-9.484-4.693-16.527-15.624-16.527-10.835 0-15.534 7.043-15.534 16.527" transform="translate(537.6248 622.1502)"/><path d="m0 0v-38.473h-8.673v61.231h10.117l11.108-35.132v35.132h8.578v-61.231h-9.029z" transform="translate(562.4424 646.4436)"/><path d="m0 0v-23.298h-10.295v23.298l-11.471 37.929h10.746l6.232-23.208h.095l6.232 23.208h9.843z" transform="translate(270.7273 550.0367)"/><path d="m0 0v29.626c0 9.569 4.515 16.525 15.356 16.525 11.376 0 14.537-6.32 14.537-15.349v-7.23h-9.392v8.037c0 3.796-1.266 5.965-4.966 5.965-3.701 0-5.24-2.62-5.24-6.321v-32.874c0-3.707 1.539-6.327 5.24-6.327 3.7 0 4.966 2.353 4.966 5.965v11.286h9.392v-10.568c0-8.756-3.612-15.261-14.537-15.261-10.841 0-15.356 7.046-15.356 16.526" transform="translate(301.7227 542.5397)"/><path d="m0 0v32.875c0 3.7-1.628 6.32-5.329 6.32-3.612 0-5.239-2.62-5.239-6.32v-32.875c0-3.707 1.627-6.327 5.239-6.327 3.701 0 5.329 2.62 5.329 6.327m-20.863 1.621v29.626c0 9.569 4.699 16.525 15.534 16.525 10.931 0 15.623-6.956 15.623-16.525v-29.626c0-9.48-4.692-16.525-15.623-16.525-10.835 0-15.534 7.045-15.534 16.525" transform="translate(358.0606 540.9184)"/><path d="m0 0v-38.47h-8.673v61.228h10.117l11.108-35.132v35.132h8.578v-61.228h-9.029z" transform="translate(382.8782 565.2086)"/><path d="m0 0v8.222h9.57v-8.4c0-3.434 1.539-5.418 5.061-5.418 3.249 0 4.693 2.168 4.693 5.418v2.346c0 3.523-1.444 5.691-4.603 8.673l-6.054 6.048c-5.869 5.779-8.578 9.302-8.578 16.348v2.079c0 7.586 4.426 13.455 14.453 13.455 10.295 0 14.358-5.055 14.358-13.906v-4.967h-9.392v5.329c0 3.523-1.628 5.233-4.877 5.233-2.893 0-4.877-1.622-4.877-5.055v-1.265c0-3.434 1.895-5.418 4.877-8.305l6.594-6.504c5.596-5.692 8.305-9.125 8.305-15.898v-2.982c0-8.393-4.515-14.357-14.988-14.357-10.478 0-14.542 5.868-14.542 13.906" transform="translate(409.3172 539.9202)"/><path d="m0 0v-46.329c0-9.481-4.063-15.623-14.536-15.623-10.841 0-15.356 6.142-15.356 15.623v46.329h10.295v-47.321c0-3.612 1.443-6.054 5.061-6.054 3.612 0 5.056 2.442 5.056 6.054v47.321z" transform="translate(474.1373 587.9661)"/><path d="m0 0h-.273l-6.95-39.735h-4.788l-7.675 39.735h-.184v-39.735h-8.489v61.227h12.011l6.683-34.495h.089l5.964 34.495h13.004v-61.227h-9.392z" transform="translate(508.3468 566.4737)"/><path d="m0 0v32.875c0 3.7-1.628 6.32-5.329 6.32-3.611 0-5.239-2.62-5.239-6.32v-32.875c0-3.707 1.628-6.327 5.239-6.327 3.701 0 5.329 2.62 5.329 6.327m-20.863 1.621v29.626c0 9.569 4.699 16.525 15.534 16.525 10.931 0 15.624-6.956 15.624-16.525v-29.626c0-9.48-4.693-16.525-15.624-16.525-10.835 0-15.534 7.045-15.534 16.525" transform="translate(544.4387 540.9184)"/><path d="m0 0v-19.057h3.434c3.523 0 5.055 1.806 5.055 5.055v9.029c0 3.345-1.532 4.973-5.055 4.973zm0-24.748v-28.086h-10.294v61.227h14.993c10.384 0 14.18-5.144 14.18-13.722v-7.859c0-6.594-2.353-10.479-8.222-11.833l9.844-27.813h-10.836z" transform="translate(260.9728 498.3348)"/><path d="m0 0h24.563v-8.393h-14.269v-17.524h10.206v-8.311h-10.206v-18.599h14.269v-8.4h-24.563z" transform="translate(285.4284 506.7278)"/><path d="m0 0v8.222h9.57v-8.4c0-3.433 1.539-5.417 5.061-5.417 3.25 0 4.693 2.168 4.693 5.417v2.346c0 3.524-1.443 5.692-4.603 8.674l-6.054 6.047c-5.869 5.78-8.578 9.303-8.578 16.348v2.079c0 7.586 4.426 13.455 14.453 13.455 10.295 0 14.358-5.055 14.358-13.906v-4.967h-9.392v5.329c0 3.523-1.627 5.233-4.877 5.233-2.892 0-4.876-1.621-4.876-5.055v-1.265c0-3.434 1.894-5.417 4.876-8.305l6.594-6.504c5.596-5.691 8.305-9.125 8.305-15.897v-2.982c0-8.394-4.515-14.358-14.988-14.358-10.478 0-14.542 5.869-14.542 13.906" transform="translate(314.4933 458.6819)"/><path d="m0 0v-24.118h3.796c3.523 0 5.055 1.717 5.055 5.061v14.084c0 3.345-1.532 4.973-5.055 4.973zm-10.295 8.393h15.261c10.39 0 14.18-5.144 14.18-13.722v-12.914c0-8.584-3.79-13.824-14.18-13.824h-4.966v-20.767h-10.295z" transform="translate(359.7165 498.3348)"/><path d="m0 0v32.874c0 3.7-1.628 6.321-5.328 6.321-3.612 0-5.24-2.621-5.24-6.321v-32.874c0-3.707 1.628-6.327 5.24-6.327 3.7 0 5.328 2.62 5.328 6.327m-20.863 1.621v29.625c0 9.57 4.699 16.526 15.535 16.526 10.93 0 15.623-6.956 15.623-16.526v-29.625c0-9.481-4.693-16.526-15.623-16.526-10.836 0-15.535 7.045-15.535 16.526" transform="translate(405.0342 459.6807)"/><path d="m0 0v-38.47h-8.673v61.228h10.117l11.108-35.132v35.132h8.578v-61.228h-9.03z" transform="translate(429.8518 483.9703)"/><path d="m0 0v8.222h9.57v-8.4c0-3.433 1.538-5.417 5.062-5.417 3.249 0 4.692 2.168 4.692 5.417v2.346c0 3.524-1.443 5.692-4.604 8.674l-6.054 6.047c-5.868 5.78-8.577 9.303-8.577 16.348v2.079c0 7.586 4.425 13.455 14.453 13.455 10.294 0 14.358-5.055 14.358-13.906v-4.967h-9.392v5.329c0 3.523-1.627 5.233-4.876 5.233-2.894 0-4.878-1.621-4.878-5.055v-1.265c0-3.434 1.895-5.417 4.878-8.305l6.593-6.504c5.595-5.691 8.304-9.125 8.304-15.897v-2.982c0-8.394-4.514-14.358-14.987-14.358-10.479 0-14.542 5.869-14.542 13.906" transform="translate(456.2914 458.6819)"/><path d="m0 0h8.222l-4.064 24.57h-.088zm-12.914-19.413 11.56 61.227h11.744l11.649-61.227h-10.568l-1.895 11.198h-10.93l-1.807-11.198z" transform="translate(501.6032 464.9138)"/><path d="m0 0v-19.146h4.514c3.434 0 5.062 1.717 5.062 4.966v9.214c0 3.249-1.539 4.966-5.151 4.966zm0 7.853h3.611c3.345 0 4.878 1.717 4.878 4.972v7.491c0 3.345-1.533 4.972-4.966 4.972h-3.523zm-10.295 25.828h14.905c10.294 0 13.722-4.781 13.722-13.454v-6.232c0-5.144-1.895-8.399-6.136-9.754 5.144-1.17 7.674-4.604 7.674-10.205v-8.127c0-8.666-3.885-13.455-14.179-13.455h-15.986z" transform="translate(538.1528 473.0464)"/><path d="m0 0h10.295v-52.827h12.285v-8.4h-22.58z" transform="translate(563.1482 506.7278)"/><path d="m0 0h24.564v-8.393h-14.269v-17.524h10.206v-8.311h-10.206v-18.599h14.269v-8.4h-24.564z" transform="translate(590.4076 506.7278)"/><path d="m0 0v8.222h9.57v-8.4c0-3.433 1.539-5.417 5.061-5.417 3.249 0 4.693 2.168 4.693 5.417v2.346c0 3.524-1.444 5.692-4.603 8.674l-6.054 6.047c-5.869 5.78-8.578 9.303-8.578 16.348v2.079c0 7.586 4.426 13.455 14.453 13.455 10.295 0 14.358-5.055 14.358-13.906v-4.967h-9.392v5.329c0 3.523-1.628 5.233-4.877 5.233-2.893 0-4.876-1.621-4.876-5.055v-1.265c0-3.434 1.894-5.417 4.876-8.305l6.594-6.504c5.596-5.691 8.305-9.125 8.305-15.897v-2.982c0-8.394-4.515-14.358-14.988-14.358-10.479 0-14.542 5.869-14.542 13.906" transform="translate(619.4732 458.6819)"/></g></g></svg>