<svg height="983.03998" viewBox="0 0 983.03998 983.03998" width="983.03998" xmlns="http://www.w3.org/2000/svg" xmlns:xlink="http://www.w3.org/1999/xlink"><clipPath id="a"><path d="m0 737.28h737.28v-737.28h-737.28z"/></clipPath><g transform="matrix(1.3333333 0 0 -1.3333333 0 983.04)"><path d="m0 0h737.28v737.28h-737.28z" fill="#f99d25"/><path d="m729.88 7.387h-722.479v722.505h722.479z" fill="#f99d25"/><g clip-path="url(#a)" fill="#fff"><path d="m0 0h1.03 99.12c1.354 0 2.456 1.107 2.456 2.464 0 .631-.254 1.197-.646 1.633l-.137.145-49.827 64.469-.485.534c-.452.493-1.094.8-1.814.8-.618 0-1.172-.259-1.612-.63l-.299-.348-.468-.525-48.611-63.79-.747-.914c-.267-.387-.421-.864-.421-1.374 0-1.357 1.103-2.464 2.461-2.464" transform="translate(150.534 171.8806)"/><path d="m0 0h-100.348c-1.358 0-2.456-1.099-2.456-2.457v-78.529c0-1.358 1.098-2.465 2.456-2.465h32.299v49.406c0 1.365 1.095 2.457 2.457 2.457h29.979c1.358 0 2.457-1.092 2.457-2.457v-49.406h33.156c1.354 0 2.456 1.107 2.456 2.465v78.529c0 1.358-1.102 2.457-2.456 2.457" transform="translate(250.3809 162.79)"/><path d="m0 0c0-1.309-1.083-2.368-2.432-2.368h-29.666c-1.349 0-2.432 1.059-2.432 2.368v18.045c0 1.301 1.083 2.359 2.432 2.359h29.666c1.349 0 2.432-1.058 2.432-2.359zm0-33.325c0-1.317-1.083-2.376-2.432-2.376h-29.666c-1.349 0-2.432 1.059-2.432 2.376v18.028c0 1.317 1.083 2.368 2.432 2.368h29.666c1.349 0 2.432-1.051 2.432-2.368zm-45.35 33.325c0-1.309-1.082-2.368-2.424-2.368h-29.673c-1.349 0-2.44 1.059-2.44 2.368v18.045c0 1.301 1.091 2.359 2.44 2.359h29.673c1.342 0 2.424-1.058 2.424-2.359zm0-33.325c0-1.317-1.082-2.376-2.424-2.376h-29.673c-1.349 0-2.44 1.059-2.44 2.376v18.028c0 1.317 1.091 2.368 2.44 2.368h29.673c1.342 0 2.424-1.051 2.424-2.368zm54.343 65.471h-99.321c-1.341 0-2.424-1.043-2.424-2.36v-100.291c0-1.301 1.083-2.36 2.424-2.36h99.321c1.35 0 2.433 1.059 2.433 2.36v100.291c0 1.317-1.083 2.36-2.433 2.36" transform="translate(588.2047 151.2016)"/><path d="m0 0c0-.695-.573-1.269-1.285-1.269h-22.246c-.712 0-1.277.574-1.277 1.269v24.808c0 .711.565 1.277 1.277 1.277h22.246c.712 0 1.285-.566 1.285-1.277zm0-56.946c0-.703-.573-1.277-1.285-1.277h-22.246c-.712 0-1.277.574-1.277 1.277v24.808c0 .703.565 1.261 1.277 1.261h22.246c.712 0 1.285-.558 1.285-1.261zm0-56.962c0-.703-.573-1.276-1.285-1.276h-22.246c-.712 0-1.277.573-1.277 1.276v24.808c0 .704.565 1.277 1.277 1.277h22.246c.712 0 1.285-.573 1.285-1.277zm0-56.946c0-.719-.573-1.276-1.285-1.276h-22.246c-.712 0-1.277.557-1.277 1.276v24.793c0 .719.565 1.276 1.277 1.276h22.246c.712 0 1.285-.557 1.285-1.276zm0-56.961c0-.704-.573-1.277-1.285-1.277h-22.246c-.712 0-1.277.573-1.277 1.277v24.8c0 .703.565 1.269 1.277 1.269h22.246c.712 0 1.285-.566 1.285-1.269zm-43.644 227.815c0-.695-.574-1.269-1.277-1.269h-22.255c-.703 0-1.276.574-1.276 1.269v24.808c0 .711.573 1.277 1.276 1.277h22.255c.703 0 1.277-.566 1.277-1.277zm0-56.946c0-.703-.574-1.277-1.277-1.277h-22.255c-.703 0-1.276.574-1.276 1.277v24.808c0 .703.573 1.261 1.276 1.261h22.255c.703 0 1.277-.558 1.277-1.261zm0-56.962c0-.703-.574-1.276-1.277-1.276h-22.255c-.703 0-1.276.573-1.276 1.276v24.808c0 .704.573 1.277 1.276 1.277h22.255c.703 0 1.277-.573 1.277-1.277zm0-56.946c0-.719-.574-1.276-1.277-1.276h-22.255c-.703 0-1.276.557-1.276 1.276v24.793c0 .719.573 1.276 1.276 1.276h22.255c.703 0 1.277-.557 1.277-1.276zm0-56.961c0-.704-.574-1.277-1.277-1.277h-22.255c-.703 0-1.276.573-1.276 1.277v24.8c0 .703.573 1.269 1.276 1.269h22.255c.703 0 1.277-.566 1.277-1.269zm57.818 299.092h-97.196c-1.301 0-2.376-1.059-2.376-2.384v-332.175c0-1.309 1.075-2.376 2.376-2.376h97.196c1.301 0 2.392 1.067 2.392 2.376v332.175c0 1.325-1.091 2.384-2.392 2.384" transform="translate(352.1466 344.8673)"/><path d="m0 0c0-1.115-.889-2.004-1.996-2.004h-99.968c-1.099 0-1.996.889-1.996 2.004v19.992c0 1.099.897 1.996 1.996 1.996h99.968c1.107 0 1.996-.897 1.996-1.996z" transform="translate(599.5178 193.4404)"/><path d="m0 0c0-1.317-1.075-2.376-2.376-2.376h-28.962c-1.325 0-2.392 1.059-2.392 2.376v18.133c0 1.326 1.067 2.384 2.392 2.384h28.962c1.301 0 2.376-1.058 2.376-2.384zm0-33.511c0-1.31-1.075-2.368-2.376-2.368h-28.962c-1.325 0-2.392 1.058-2.392 2.368v18.133c0 1.317 1.067 2.376 2.392 2.376h28.962c1.301 0 2.376-1.059 2.376-2.376zm0-33.512c0-1.3-1.075-2.367-2.376-2.367h-28.962c-1.325 0-2.392 1.067-2.392 2.367v18.142c0 1.317 1.067 2.376 2.392 2.376h28.962c1.301 0 2.376-1.059 2.376-2.376zm0-33.502c0-1.318-1.075-2.377-2.376-2.377h-28.962c-1.325 0-2.392 1.059-2.392 2.377v18.133c0 1.325 1.067 2.376 2.392 2.376h28.962c1.301 0 2.376-1.051 2.376-2.376zm0-33.504c0-1.317-1.075-2.375-2.376-2.375h-28.962c-1.325 0-2.392 1.058-2.392 2.375v18.134c0 1.308 1.067 2.367 2.392 2.367h28.962c1.301 0 2.376-1.059 2.376-2.367zm-44.203 140.429v-.872-39.072c0-1.317-1.074-2.375-2.375-2.375h-28.962c-1.325 0-2.392 1.058-2.392 2.375v4.825.201c.012.316.073.615.182.889.048.097.056.138.145.275.057.113.138.218.21.315.073.114.182.259.271.389 3.701 5.3 20.412 25.883 27.43 34.488l.704.849c.508.614 1.276 1.01 2.137 1.01 1.33 0 2.392-.97 2.65-2.222zm-.08-73.423c0-1.3-1.059-2.367-2.376-2.367h-28.97c-1.317 0-2.375 1.067-2.375 2.367v18.142c0 1.317 1.058 2.376 2.375 2.376h28.97c1.317 0 2.376-1.059 2.376-2.376zm0-33.502c0-1.318-1.059-2.377-2.376-2.377h-28.97c-1.317 0-2.375 1.059-2.375 2.377v18.133c0 1.325 1.058 2.376 2.375 2.376h28.97c1.317 0 2.376-1.051 2.376-2.376zm0-33.504c0-1.317-1.059-2.375-2.376-2.375h-28.97c-1.317 0-2.375 1.058-2.375 2.375v18.134c0 1.308 1.058 2.367 2.375 2.367h28.97c1.317 0 2.376-1.059 2.376-2.367zm15.115 169.714.683.856c6.537 8.388 17.551 21.948 22.921 28.534l.703.841c.509.613 1.277 1.009 2.137 1.009 1.33 0 2.392-.961 2.651-2.222v-1.075-.872-28.712c0-1.478-1.176-2.666-2.639-2.731-.044 0-.08-.024-.121-.024-.04 0-.076.024-.121.024h-22.687-1.183c-.046 0-.082-.024-.122-.024-.041 0-.076.024-.121.024-1.463.065-2.638 1.253-2.638 2.731 0 .614.197 1.18.537 1.641m40.218 65.81c-.323 1.067-1.269 1.859-2.44 1.859-.525 0-.982-.194-1.39-.461-.06-.04-.122-.072-.182-.121l-.82-1.034-95.528-121.181-.44-.59c-.493-.485-.808-1.147-.829-1.89v-.162-148.752c0-1.309 1.067-2.368 2.384-2.368h97.1c1.317 0 2.376 1.059 2.376 2.368v271.338c0 .356-.093.695-.231.994" transform="translate(472.673 251.9215)"/><path d="m0 0v-25.562h.211l17.187 17.836h.219v-111.514h24.491v145.678h-19.554z" transform="translate(59.0166 642.9076)"/><path d="m0 0v-25.562h.219l17.187 17.836h.211v-111.514h24.5v145.678h-19.546z" transform="translate(114.8748 642.9076)"/><path d="m0 0v29.622c0 9.573 4.515 16.529 15.356 16.529 11.376 0 14.537-6.324 14.537-15.353v-7.227h-9.392v8.038c0 3.793-1.265 5.961-4.966 5.961s-5.24-2.62-5.24-6.321v-32.874c0-3.703 1.539-6.323 5.24-6.323s4.966 2.35 4.966 5.961v11.29h9.392v-10.568c0-8.759-3.612-15.261-14.537-15.261-10.841 0-15.356 7.042-15.356 16.526" transform="translate(214.8584 623.7728)"/><path d="m250.334 669.199h10.294v-61.231h-10.294z"/><path d="m0 0v-46.33c0-9.483-4.063-15.623-14.536-15.623-10.841 0-15.356 6.14-15.356 15.623v46.33h10.295v-47.321c0-3.615 1.443-6.054 5.061-6.054 3.612 0 5.056 2.439 5.056 6.054v47.321z" transform="translate(296.4718 669.1992)"/><path d="m0 0c4.248 0 5.869 2.528 5.869 6.231v32.061c0 3.612-1.621 6.142-5.869 6.142h-4.337v-44.434zm16.164 36.394v-28.357c0-9.391-3.879-16.437-14.898-16.437h-15.897v61.231h15.897c11.019 0 14.898-6.953 14.898-16.437" transform="translate(316.9529 616.3682)"/><path d="m0 0h8.222l-4.063 24.567h-.089zm-12.914-19.416 11.56 61.231h11.744l11.649-61.231h-10.568l-1.895 11.197h-10.93l-1.806-11.197z" transform="translate(348.899 627.3846)"/><path d="m0 0c4.247 0 5.869 2.528 5.869 6.231v32.061c0 3.612-1.622 6.142-5.869 6.142h-4.337v-44.434zm16.164 36.394v-28.357c0-9.391-3.879-16.437-14.899-16.437h-15.897v61.231h15.897c11.02 0 14.899-6.953 14.899-16.437" transform="translate(389.7917 616.3682)"/><path d="m0 0h24.564v-8.397h-14.269v-17.521h10.206v-8.311h-10.206v-18.602h14.269v-8.4h-24.564z" transform="translate(411.8049 669.1992)"/><path d="m0 0v8.219h9.57v-8.397c0-3.434 1.538-5.421 5.061-5.421 3.249 0 4.693 2.168 4.693 5.421v2.346c0 3.523-1.444 5.691-4.604 8.67l-6.054 6.05c-5.868 5.78-8.577 9.303-8.577 16.349v2.076c0 7.586 4.425 13.458 14.453 13.458 10.294 0 14.358-5.058 14.358-13.91v-4.966h-9.392v5.328c0 3.523-1.628 5.237-4.877 5.237-2.893 0-4.877-1.625-4.877-5.055v-1.266c0-3.433 1.895-5.417 4.877-8.31l6.594-6.502c5.595-5.688 8.304-9.121 8.304-15.894v-2.982c0-8.396-4.514-14.358-14.987-14.358-10.479 0-14.542 5.869-14.542 13.907" transform="translate(440.8705 621.1533)"/><path d="m0 0v-23.301h-10.294v23.301l-11.471 37.929h10.745l6.232-23.209h.095l6.232 23.209h9.843z" transform="translate(511.3215 631.2698)"/><path d="m0 0v29.626c0 9.569 4.515 16.525 15.356 16.525 11.376 0 14.537-6.32 14.537-15.35v-7.229h-9.392v8.037c0 3.796-1.265 5.965-4.966 5.965s-5.24-2.62-5.24-6.321v-32.874c0-3.707 1.539-6.327 5.24-6.327s4.966 2.353 4.966 5.965v11.286h9.392v-10.568c0-8.756-3.612-15.261-14.537-15.261-10.841 0-15.356 7.046-15.356 16.526" transform="translate(214.8584 542.5377)"/><path d="m0 0v32.875c0 3.7-1.628 6.32-5.329 6.32-3.612 0-5.239-2.62-5.239-6.32v-32.875c0-3.707 1.627-6.327 5.239-6.327 3.701 0 5.329 2.62 5.329 6.327m-20.863 1.621v29.626c0 9.57 4.699 16.525 15.534 16.525 10.931 0 15.623-6.955 15.623-16.525v-29.626c0-9.48-4.692-16.525-15.623-16.525-10.835 0-15.534 7.045-15.534 16.525" transform="translate(271.1964 540.9164)"/><path d="m0 0h-.273l-6.951-39.735h-4.788l-7.675 39.735h-.184v-39.735h-8.489v61.227h12.011l6.684-34.495h.089l5.964 34.495h13.003v-61.227h-9.391z" transform="translate(315.7008 566.4718)"/><path d="m0 0v-46.329c0-9.481-4.063-15.623-14.536-15.623-10.841 0-15.356 6.142-15.356 15.623v46.329h10.295v-47.321c0-3.612 1.443-6.054 5.061-6.054 3.612 0 5.056 2.442 5.056 6.054v47.321z" transform="translate(360.8277 587.9641)"/><path d="m0 0v-38.47h-8.673v61.227h10.117l11.108-35.131v35.131h8.578v-61.227h-9.03z" transform="translate(375.351 565.2067)"/><path d="m402.33 587.964h10.295v-61.227h-10.295z"/><path d="m0 0c4.248 0 5.869 2.524 5.869 6.232v32.06c0 3.612-1.621 6.142-5.869 6.142h-4.337v-44.434zm16.164 36.397v-28.36c0-9.391-3.879-16.437-14.898-16.437h-15.897v61.228h15.897c11.019 0 14.898-6.95 14.898-16.431" transform="translate(433.208 535.1364)"/><path d="m0 0h8.222l-4.063 24.57h-.09zm-12.914-19.413 11.56 61.228h11.744l11.649-61.228h-10.568l-1.895 11.198h-10.93l-1.807-11.198z" transform="translate(465.1542 546.1495)"/><path d="m0 0c4.247 0 5.869 2.524 5.869 6.232v32.06c0 3.612-1.622 6.142-5.869 6.142h-4.337v-44.434zm16.163 36.397v-28.36c0-9.391-3.878-16.437-14.898-16.437h-15.896v61.228h15.896c11.02 0 14.898-6.95 14.898-16.431" transform="translate(506.0403 535.1364)"/><path d="m0 0h24.564v-8.394h-14.269v-17.524h10.206v-8.31h-10.206v-18.6h14.269v-8.399h-24.564z" transform="translate(528.0535 587.9641)"/><path d="m0 0v8.222h9.57v-8.4c0-3.434 1.539-5.418 5.062-5.418 3.249 0 4.692 2.168 4.692 5.418v2.346c0 3.523-1.443 5.691-4.604 8.673l-6.053 6.048c-5.869 5.779-8.578 9.303-8.578 16.348v2.079c0 7.586 4.426 13.455 14.453 13.455 10.295 0 14.358-5.055 14.358-13.906v-4.967h-9.392v5.329c0 3.523-1.627 5.233-4.876 5.233-2.894 0-4.878-1.622-4.878-5.055v-1.265c0-3.434 1.895-5.418 4.878-8.305l6.593-6.504c5.595-5.692 8.305-9.125 8.305-15.898v-2.982c0-8.393-4.515-14.357-14.988-14.357-10.479 0-14.542 5.869-14.542 13.906" transform="translate(557.1191 539.9183)"/><path d="m0 0v8.222h9.57v-8.4c0-3.433 1.539-5.417 5.061-5.417 3.25 0 4.693 2.168 4.693 5.417v2.346c0 3.523-1.443 5.692-4.603 8.674l-6.054 6.047c-5.869 5.78-8.578 9.302-8.578 16.348v2.079c0 7.586 4.426 13.455 14.453 13.455 10.295 0 14.358-5.055 14.358-13.906v-4.967h-9.392v5.329c0 3.523-1.627 5.233-4.877 5.233-2.892 0-4.876-1.621-4.876-5.055v-1.265c0-3.434 1.894-5.418 4.876-8.305l6.594-6.504c5.596-5.691 8.305-9.125 8.305-15.897v-2.982c0-8.394-4.515-14.358-14.988-14.358-10.478 0-14.542 5.869-14.542 13.906" transform="translate(214.318 458.68)"/><path d="m0 0v32.874c0 3.7-1.628 6.32-5.329 6.32-3.611 0-5.239-2.62-5.239-6.32v-32.874c0-3.707 1.628-6.327 5.239-6.327 3.701 0 5.329 2.62 5.329 6.327m-20.863 1.621v29.625c0 9.57 4.699 16.526 15.534 16.526 10.931 0 15.624-6.956 15.624-16.526v-29.625c0-9.481-4.693-16.526-15.624-16.526-10.835 0-15.534 7.045-15.534 16.526" transform="translate(270.109 459.6788)"/><path d="m0 0v8.222h9.57v-8.4c0-3.433 1.538-5.417 5.061-5.417 3.25 0 4.693 2.168 4.693 5.417v2.346c0 3.523-1.443 5.692-4.604 8.674l-6.053 6.047c-5.869 5.78-8.578 9.302-8.578 16.348v2.079c0 7.586 4.425 13.455 14.453 13.455 10.295 0 14.358-5.055 14.358-13.906v-4.967h-9.392v5.329c0 3.523-1.627 5.233-4.877 5.233-2.893 0-4.877-1.621-4.877-5.055v-1.265c0-3.434 1.895-5.418 4.877-8.305l6.594-6.504c5.595-5.691 8.304-9.125 8.304-15.897v-2.982c0-8.394-4.514-14.358-14.987-14.358-10.479 0-14.542 5.869-14.542 13.906" transform="translate(285.7132 458.68)"/><path d="m0 0h27.367v-8.393h-8.488v-52.834h-10.384v52.834h-8.495z" transform="translate(318.1106 506.7258)"/><path d="m0 0h24.564v-8.393h-14.269v-17.524h10.206v-8.311h-10.206v-18.599h14.269v-8.4h-24.564z" transform="translate(350.2469 506.7258)"/><path d="m0 0v-38.47h-8.674v61.227h10.117l11.109-35.131v35.131h8.578v-61.227h-9.03z" transform="translate(388.9778 483.9684)"/><path d="m415.957 506.726h10.295v-61.227h-10.295z"/><path d="m0 0v-19.146h4.514c3.434 0 5.062 1.717 5.062 4.966v9.214c0 3.249-1.538 4.966-5.15 4.966zm0 7.853h3.612c3.344 0 4.877 1.717 4.877 4.972v7.491c0 3.345-1.533 4.972-4.966 4.972h-3.523zm-10.295 25.828h14.905c10.294 0 13.722-4.781 13.722-13.454v-6.232c0-5.144-1.895-8.399-6.136-9.754 5.144-1.17 7.674-4.604 7.674-10.205v-8.127c0-8.666-3.884-13.455-14.179-13.455h-15.986z" transform="translate(442.4983 473.0444)"/><path d="m0 0h10.294v-52.827h12.286v-8.4h-22.58z" transform="translate(467.4878 506.7258)"/><path d="m0 0h24.564v-8.393h-14.269v-17.524h10.205v-8.311h-10.205v-18.599h14.269v-8.4h-24.564z" transform="translate(494.7472 506.7258)"/><path d="m0 0v8.222h9.57v-8.4c0-3.433 1.538-5.417 5.061-5.417 3.249 0 4.692 2.168 4.692 5.417v2.346c0 3.523-1.443 5.692-4.603 8.674l-6.054 6.047c-5.868 5.78-8.577 9.302-8.577 16.348v2.079c0 7.586 4.425 13.455 14.453 13.455 10.294 0 14.357-5.055 14.357-13.906v-4.967h-9.391v5.329c0 3.523-1.628 5.233-4.877 5.233-2.893 0-4.877-1.621-4.877-5.055v-1.265c0-3.434 1.895-5.418 4.877-8.305l6.594-6.504c5.595-5.691 8.304-9.125 8.304-15.897v-2.982c0-8.394-4.514-14.358-14.987-14.358-10.479 0-14.542 5.869-14.542 13.906" transform="translate(523.8128 458.68)"/></g></g></svg>