<?xml version="1.0" encoding="UTF-8"?>
<!-- Generator: visioncortex VTracer 0.6.3 -->
<svg version="1.1" xmlns="http://www.w3.org/2000/svg" width="1280" height="1280">
<path d="M0 0 C422.4 0 844.8 0 1280 0 C1280 422.4 1280 844.8 1280 1280 C857.6 1280 435.2 1280 0 1280 C0 857.6 0 435.2 0 0 Z " fill="#FAC416" transform="translate(0,0)"/>
<path d="M0 0 C1.27 -0 2.54 -0.01 3.84 -0.01 C16.64 0 28.61 0.91 41.06 3.94 C42.77 4.34 42.77 4.34 44.51 4.76 C56.45 7.64 67.84 11.05 79.06 16.12 C80.13 16.6 81.19 17.08 82.29 17.58 C95.66 23.91 107.93 32.17 119.19 41.75 C119.79 42.26 120.38 42.77 121 43.29 C122.4 44.52 123.74 45.82 125.06 47.12 C125.06 47.78 125.06 48.45 125.06 49.12 C125.79 49.35 126.52 49.58 127.27 49.82 C130.64 51.4 132.36 53.26 134.81 56.06 C135.24 56.55 135.67 57.04 136.12 57.55 C137.44 59.06 138.75 60.59 140.06 62.12 C140.82 63 141.58 63.87 142.36 64.77 C171.79 99.57 187.48 142.96 187.38 188.4 C187.37 191.32 187.4 194.24 187.42 197.16 C187.46 206.96 187.03 215.71 184.06 225.12 C183.63 227.08 183.21 229.04 182.81 231 C179.33 246.07 174.59 260.58 167.06 274.12 C166.56 275.08 166.05 276.04 165.54 277.03 C157.33 292.52 147.11 306.42 135.06 319.12 C134.6 319.62 134.14 320.11 133.66 320.62 C117.39 337.95 98.22 350.07 76.75 360 C75.77 360.45 74.79 360.91 73.79 361.37 C64.17 365.71 54.39 369.08 44.06 371.25 C42.92 371.5 42.92 371.5 41.75 371.75 C35.55 373.07 29.33 374.17 23.06 375.12 C22.18 375.3 21.3 375.47 20.4 375.66 C16.6 376.19 12.93 376.17 9.11 376.04 C8.37 376.02 7.63 376 6.86 375.97 C5.31 375.93 3.75 375.88 2.19 375.83 C-0.19 375.75 -2.58 375.68 -4.97 375.62 C-6.48 375.57 -8 375.52 -9.52 375.48 C-10.23 375.46 -10.94 375.44 -11.68 375.42 C-16.71 375.24 -16.71 375.24 -18.94 374.12 C-20.31 374.08 -21.68 374.09 -23.05 374.13 C-38.34 374.28 -52.73 369.29 -66.94 364.12 C-67.63 363.88 -68.32 363.63 -69.03 363.38 C-75.2 361.18 -80.58 358.95 -85.94 355.12 C-86.95 354.71 -87.97 354.3 -89.01 353.88 C-115.83 342.63 -141.03 318.11 -156.64 294.1 C-157.86 292.24 -159.11 290.43 -160.39 288.61 C-166.33 280.01 -170.31 270.87 -174.13 261.16 C-174.77 259.54 -175.46 257.93 -176.15 256.32 C-181.34 244.29 -184.13 231.24 -186.36 218.38 C-186.85 215.33 -186.85 215.33 -187.46 213.18 C-187.95 211.07 -188.07 209.22 -188.08 207.05 C-188.09 206.26 -188.1 205.47 -188.1 204.65 C-188.1 203.8 -188.1 202.95 -188.11 202.07 C-188.11 201.18 -188.11 200.29 -188.12 199.37 C-188.12 197.48 -188.12 195.59 -188.12 193.7 C-188.12 190.86 -188.14 188.02 -188.16 185.18 C-188.21 170.54 -187.01 156.81 -183.12 142.62 C-182.86 141.64 -182.6 140.66 -182.32 139.64 C-178.72 126.45 -174.4 114.21 -167.94 102.12 C-167.45 101.19 -166.97 100.26 -166.47 99.3 C-152.81 73.41 -133.67 51.29 -109.94 34.12 C-109.4 33.72 -108.86 33.32 -108.3 32.91 C-100.25 26.95 -92.04 22.3 -82.94 18.12 C-82.04 17.71 -81.15 17.29 -80.23 16.86 C-54.31 5.44 -28.23 -0.09 0 0 Z " fill="#FAFCFC" transform="translate(639.9375,618.875)"/>
<path d="M0 0 C19.24 2.84 35.29 18.41 47 33 C49.56 36.55 51.83 40.2 54 44 C54.6 45.05 55.2 46.1 55.81 47.18 C68.05 70.05 69.97 95.19 63 120 C54.68 146.61 35.23 166.35 11.12 179.31 C-10.46 189.65 -36.32 191.68 -59 184 C-60.44 183.57 -60.44 183.57 -61.92 183.12 C-83.37 176.19 -104.17 159.79 -115 140 C-115.33 139.42 -115.66 138.85 -116 138.25 C-121.9 127.86 -124.97 117.74 -127 106 C-127.19 104.97 -127.39 103.95 -127.59 102.89 C-128.98 93.19 -128.04 83.52 -126 74 C-125.76 72.78 -125.51 71.55 -125.26 70.29 C-119.55 43.66 -103.29 22.87 -80.64 8.04 C-74.76 4.32 -69.07 1.15 -62 1 C-60 3 -60 3 -59.84 6.88 C-59.86 8.44 -59.9 10 -59.94 11.56 C-60 14.38 -60.02 17.18 -60 20 C-59.67 20.33 -59.34 20.66 -59 21 C-58.75 25.93 -58.62 29.56 -61 34 C-63.57 36.21 -63.57 36.21 -66.69 38.38 C-80.59 48.39 -90 61.84 -93 79 C-94.5 97.47 -93.63 114.84 -82 130 C-81.36 130.85 -80.73 131.7 -80.07 132.58 C-70.79 143.96 -56.39 151.49 -42 154 C-40.24 154.09 -38.48 154.13 -36.73 154.13 C-35.24 154.13 -35.24 154.13 -33.73 154.14 C-32.7 154.13 -31.68 154.13 -30.62 154.12 C-29.61 154.13 -28.59 154.13 -27.55 154.14 C-11.22 154.12 2.37 148.89 14.51 137.68 C27.02 124.48 33.88 107.56 33.59 89.34 C32.91 76.38 28.24 64.67 21 54 C20.52 53.26 20.03 52.53 19.54 51.77 C15.74 46.34 10.36 39.86 4.17 37.22 C1.78 36.05 0.57 35.19 -1 33 C-1.93 27.57 -1.7 22.24 -1.5 16.75 C-1.47 15.24 -1.45 13.73 -1.43 12.22 C-1.23 1.23 -1.23 1.23 0 0 Z " fill="#FAC417" transform="translate(670,714)"/>
<path d="M0 0 C14.06 -0.02 28.13 -0.04 42.19 -0.05 C48.72 -0.06 55.25 -0.06 61.78 -0.08 C68.08 -0.09 74.37 -0.09 80.67 -0.09 C83.08 -0.1 85.49 -0.1 87.89 -0.11 C91.25 -0.11 94.61 -0.11 97.97 -0.11 C98.98 -0.12 99.98 -0.12 101.02 -0.12 C101.93 -0.12 102.84 -0.12 103.78 -0.12 C104.97 -0.12 104.97 -0.12 106.19 -0.12 C108 0 108 0 109 1 C109.11 2.36 109.15 3.73 109.16 5.1 C109.17 5.97 109.18 6.85 109.19 7.74 C109.19 8.69 109.2 9.65 109.2 10.62 C109.21 11.6 109.21 12.58 109.22 13.58 C109.23 15.66 109.24 17.73 109.24 19.81 C109.25 22.96 109.28 26.11 109.31 29.26 C109.32 31.28 109.32 33.3 109.33 35.31 C109.34 36.25 109.35 37.18 109.37 38.15 C109.34 44.34 108.17 49.23 106 55 C105.55 56.72 105.13 58.46 104.75 60.2 C104.56 61.09 104.36 61.98 104.16 62.9 C103.96 63.82 103.77 64.74 103.56 65.69 C101.94 73.01 100.16 80.21 98.03 87.4 C96.76 91.82 95.66 96.28 94.56 100.75 C92.94 107.35 91.22 113.9 89.38 120.44 C87.67 126.46 86.17 132.48 84.81 138.59 C83.63 143.54 82.23 148.42 80.84 153.32 C79.26 158.94 77.89 164.59 76.68 170.3 C76 173 76 173 75.05 175.29 C73.93 178.18 73.23 180.98 72.56 184 C72.31 185.13 72.05 186.27 71.79 187.44 C71.4 189.2 71.4 189.2 71 191 C70.48 193.33 69.96 195.67 69.44 198 C69.21 199.03 68.98 200.06 68.75 201.12 C68.03 203.88 67.07 206.37 66 209 C65.53 211.08 65.07 213.16 64.62 215.24 C63.73 219.18 62.66 223.08 61.6 226.98 C60.68 230.39 59.79 233.81 58.96 237.24 C58.79 237.94 58.62 238.64 58.44 239.37 C57.96 241.33 57.5 243.29 57.03 245.25 C55.93 249.24 54.45 253.12 53 257 C39.47 257 25.94 257 12 257 C11.12 250.84 11.04 248.5 12.51 242.84 C12.68 242.18 12.85 241.51 13.03 240.83 C13.57 238.72 14.13 236.61 14.69 234.5 C15.04 233.12 15.4 231.73 15.76 230.35 C17.77 222.54 19.86 214.76 21.94 206.97 C24.03 199.13 26.07 191.28 28.12 183.44 C30.95 172.65 33.77 161.86 36.62 151.07 C41.26 133.57 45.79 116.05 50.13 98.48 C50.4 97.4 50.4 97.4 50.67 96.3 C51.15 94.36 51.63 92.43 52.11 90.5 C53.01 86.98 53.99 83.49 55 80 C58.97 66.07 62.54 52.06 66 38 C61.87 36.46 58.41 35.74 54.01 35.7 C52.85 35.68 51.7 35.66 50.5 35.65 C49.27 35.64 48.03 35.63 46.76 35.62 C44.85 35.6 44.85 35.6 42.89 35.57 C39.52 35.53 36.14 35.49 32.76 35.46 C27.98 35.41 23.21 35.36 18.43 35.29 C15.89 35.26 13.34 35.24 10.8 35.21 C9.66 35.2 8.52 35.19 7.34 35.17 C5.83 35.16 5.83 35.16 4.28 35.14 C2 35 2 35 1 34 C0.84 31.48 0.74 28.99 0.68 26.46 C0.66 25.71 0.64 24.96 0.62 24.18 C0.56 21.77 0.5 19.35 0.44 16.94 C0.39 15.3 0.35 13.67 0.31 12.04 C0.2 8.02 0.1 4.01 0 0 Z " fill="#FAFCFC" transform="translate(166,104)"/>
<path d="M0 0 C0.33 0 0.66 0 1 0 C1 420.75 1 841.5 1 1275 C-415.79 1275 -832.58 1275 -1262 1275 C-1262 1274.67 -1262 1274.34 -1262 1274 C-1249.15 1273.07 -1236.36 1272.86 -1223.48 1272.88 C-1221.34 1272.88 -1219.2 1272.88 -1217.06 1272.87 C-1211.19 1272.87 -1205.32 1272.87 -1199.46 1272.88 C-1193.07 1272.88 -1186.68 1272.88 -1180.29 1272.88 C-1169.1 1272.87 -1157.91 1272.88 -1146.72 1272.88 C-1134.72 1272.89 -1122.72 1272.89 -1110.71 1272.89 C-1109.95 1272.89 -1109.2 1272.89 -1108.41 1272.89 C-1104.54 1272.89 -1100.67 1272.89 -1096.8 1272.89 C-1068.8 1272.88 -1040.81 1272.89 -1012.82 1272.89 C-985.1 1272.9 -957.39 1272.9 -929.67 1272.91 C-928.81 1272.91 -927.95 1272.91 -927.06 1272.91 C-919.2 1272.91 -911.33 1272.91 -903.46 1272.91 C-883.91 1272.91 -864.36 1272.91 -844.8 1272.91 C-843.91 1272.91 -843.02 1272.91 -842.1 1272.91 C-798.81 1272.91 -755.52 1272.92 -712.22 1272.92 C-697.2 1272.93 -682.18 1272.93 -667.16 1272.93 C-666.23 1272.93 -665.3 1272.93 -664.34 1272.93 C-621.02 1272.94 -577.7 1272.94 -534.37 1272.94 C-531.56 1272.95 -528.75 1272.95 -525.93 1272.95 C-507.29 1272.95 -488.65 1272.95 -470.01 1272.95 C-432.91 1272.95 -395.82 1272.95 -358.73 1272.96 C-356.96 1272.96 -355.2 1272.96 -353.43 1272.96 C-273.93 1272.96 -194.43 1272.97 -114.93 1272.98 C-114.18 1272.98 -113.44 1272.98 -112.67 1272.98 C-75.45 1272.99 -38.22 1272.99 -1 1273 C-1 1271.95 -1 1270.9 -1 1269.82 C-1.01 1233.86 -1.01 1197.91 -1.02 1161.96 C-1.02 1160.87 -1.02 1160.87 -1.02 1159.76 C-1.03 1082.05 -1.04 1004.35 -1.04 926.64 C-1.04 924.91 -1.04 923.18 -1.04 921.45 C-1.05 885.17 -1.05 848.88 -1.05 812.6 C-1.05 794.36 -1.05 776.13 -1.05 757.9 C-1.05 755.15 -1.06 752.4 -1.06 749.65 C-1.06 707.37 -1.06 665.08 -1.07 622.79 C-1.07 621.88 -1.07 620.97 -1.07 620.04 C-1.07 605.41 -1.07 590.78 -1.08 576.15 C-1.08 533.95 -1.09 491.76 -1.09 449.56 C-1.09 448.69 -1.09 447.82 -1.09 446.92 C-1.09 427.82 -1.09 408.71 -1.09 389.6 C-1.09 381.91 -1.09 374.22 -1.09 366.53 C-1.09 365.69 -1.09 364.85 -1.09 363.98 C-1.1 336.98 -1.1 309.97 -1.11 282.96 C-1.11 255.7 -1.12 228.44 -1.11 201.18 C-1.11 197.39 -1.11 193.6 -1.11 189.81 C-1.11 188.7 -1.11 188.7 -1.11 187.56 C-1.11 175.92 -1.12 164.28 -1.12 152.64 C-1.12 141.12 -1.12 129.61 -1.12 118.09 C-1.12 111.96 -1.12 105.83 -1.12 99.7 C-1.15 66.45 -0.73 33.23 0 0 Z " fill="#F4D45B" transform="translate(1279,5)"/>
<path d="M0 0 C2.94 -0.13 5.87 -0.23 8.81 -0.31 C10.06 -0.38 10.06 -0.38 11.34 -0.44 C13.66 -0.49 15.73 -0.47 18 0 C20.57 3 21.37 5.65 21.81 9.52 C21.91 10.37 22.02 11.22 22.13 12.1 C22.23 12.99 22.33 13.89 22.44 14.81 C23.32 21.72 24.38 28.49 26.06 35.25 C26.22 35.92 26.39 36.6 26.55 37.29 C26.97 38.88 27.47 40.44 28 42 C28.66 42.33 29.32 42.66 30 43 C31.54 35.66 33 28.37 34 20.94 C34.95 13.86 36.41 6.96 38 0 C41.12 -0.06 44.25 -0.09 47.38 -0.12 C48.26 -0.14 49.15 -0.16 50.07 -0.18 C50.92 -0.18 51.77 -0.19 52.65 -0.2 C53.83 -0.21 53.83 -0.21 55.03 -0.23 C57 0 57 0 59 2 C59.19 4.89 59.25 7.69 59.23 10.58 C59.23 11.47 59.23 12.36 59.23 13.27 C59.23 16.21 59.21 19.16 59.2 22.1 C59.19 24.14 59.19 26.18 59.19 28.21 C59.18 33.58 59.16 38.95 59.14 44.32 C59.12 49.8 59.11 55.27 59.1 60.75 C59.08 71.5 59.04 82.25 59 93 C54.38 93 49.76 93 45 93 C43.28 89.57 43.75 85.62 43.68 81.84 C43.66 80.93 43.64 80.02 43.62 79.09 C43.56 76.18 43.5 73.28 43.44 70.38 C43.39 68.41 43.35 66.44 43.31 64.48 C43.2 59.65 43.1 54.83 43 50 C42.01 50.5 42.01 50.5 41 51 C40.29 53.58 40.29 53.58 39.82 56.73 C39.61 57.92 39.41 59.11 39.2 60.34 C38.99 61.61 38.78 62.88 38.56 64.19 C38.12 66.75 37.68 69.31 37.24 71.87 C37.03 73.1 36.82 74.34 36.6 75.6 C35.57 81.44 34.34 87.23 33 93 C30.69 93 28.38 93 26 93 C22.98 87.74 21.67 83.84 21.27 77.83 C20.34 68.1 17.44 58.44 15 49 C13.76 57.99 13.66 67 13.44 76.06 C13.39 77.71 13.35 79.35 13.31 81 C13.2 85 13.1 89 13 93 C9.04 93 5.08 93 1 93 C-0.65 89.7 -0.13 86.04 -0.11 82.42 C-0.11 81.09 -0.11 81.09 -0.11 79.73 C-0.11 76.79 -0.11 73.84 -0.1 70.9 C-0.1 68.86 -0.09 66.82 -0.09 64.79 C-0.09 59.42 -0.08 54.05 -0.07 48.68 C-0.06 43.2 -0.05 37.73 -0.05 32.25 C-0.04 21.5 -0.02 10.75 0 0 Z " fill="#FAFCFC" transform="translate(486,247)"/>
<path d="M0 0 C4.89 -0.07 9.79 -0.13 14.68 -0.16 C16.34 -0.18 18.01 -0.2 19.67 -0.23 C22.06 -0.26 24.46 -0.28 26.86 -0.29 C27.97 -0.32 27.97 -0.32 29.1 -0.34 C33.6 -0.34 36.41 0.25 40 3 C46.44 10.29 46.55 18.67 46.56 27.94 C46.56 29.04 46.57 30.14 46.57 31.28 C46.44 37.56 46.09 41.88 41.46 46.55 C37.22 49.89 37.22 49.89 35 51 C37.25 62.64 41.21 73.82 46.19 84.56 C47 87 47 87 47 93 C42.05 93 37.1 93 32 93 C28.94 87.98 26.83 83.13 25 77.56 C23.09 71.76 20.84 66.42 18 61 C16.88 64.37 16.79 67.09 16.68 70.64 C16.64 71.94 16.6 73.23 16.56 74.57 C16.52 75.94 16.48 77.32 16.44 78.69 C16.39 80.07 16.35 81.45 16.31 82.84 C16.2 86.23 16.1 89.61 16 93 C13.71 93.05 11.42 93.09 9.12 93.12 C7.85 93.15 6.57 93.17 5.26 93.2 C2 93 2 93 0 91 C-0.19 88.11 -0.25 85.31 -0.23 82.42 C-0.23 81.53 -0.23 80.64 -0.23 79.73 C-0.23 76.79 -0.21 73.84 -0.2 70.9 C-0.19 68.86 -0.19 66.82 -0.19 64.79 C-0.18 59.42 -0.16 54.05 -0.14 48.68 C-0.12 43.2 -0.11 37.73 -0.1 32.25 C-0.08 21.5 -0.04 10.75 0 0 Z " fill="#FAFCFC" transform="translate(508,110)"/>
<path d="M0 0 C3.2 1.67 6.31 3.43 9.41 5.28 C12.17 6.92 14.96 8.53 17.74 10.14 C26.43 15.16 35.08 20.24 43.65 25.45 C45.59 26.58 47.53 27.6 49.55 28.57 C53.41 30.47 57.21 32.49 60.98 34.57 C61.58 34.89 62.17 35.21 62.79 35.53 C69.03 39.02 73.25 43.99 75.8 50.7 C76.59 56.08 75.83 60.09 72.8 64.7 C69.45 67.96 66.36 69.67 61.8 70.7 C56.93 70.25 53.25 68.67 48.92 66.45 C48.3 66.13 47.69 65.82 47.05 65.49 C43.16 63.48 39.42 61.32 35.76 58.93 C33.47 57.49 31.12 56.22 28.73 54.95 C24.17 52.49 19.73 49.88 15.3 47.2 C10.14 44.07 4.93 41.09 -0.38 38.23 C-6.06 35.16 -11.66 32.01 -17.2 28.7 C-18.01 28.28 -18.82 27.85 -19.65 27.42 C-21.93 25.97 -22.96 25.12 -24.2 22.7 C-25.14 16.32 -25.97 9.4 -22.32 3.82 C-16.03 -2.47 -8.08 -3.28 0 0 Z " fill="#FAFCFC" transform="translate(379.203125,636.30078125)"/>
<path d="M0 0 C3.19 2.12 3.19 2.12 5 5 C5.6 5.87 6.2 6.73 6.81 7.62 C8.7 12.98 9.52 18.75 7.04 24.05 C3.57 28.56 -1.08 30.93 -6.07 33.47 C-9 35 -11.73 36.69 -14.5 38.5 C-18.89 41.34 -23.36 43.89 -27.96 46.36 C-39.39 52.52 -50.59 59.07 -61.73 65.75 C-62.63 66.28 -63.53 66.82 -64.46 67.38 C-65.26 67.86 -66.07 68.34 -66.89 68.84 C-71.14 71.18 -75.24 71.62 -80 71 C-84.78 69.33 -88.85 67.03 -92 63 C-92.5 59.72 -92.5 59.72 -92.44 56.06 C-92.44 54.86 -92.43 53.65 -92.43 52.41 C-91.73 46.9 -89.22 43.72 -84.91 40.31 C-81.75 38.14 -78.38 36.39 -74.99 34.6 C-71.95 32.97 -68.97 31.25 -66 29.5 C-62.12 27.22 -58.21 25.01 -54.25 22.88 C-51.1 21.17 -48.02 19.43 -45 17.5 C-41.09 15 -37.03 12.82 -32.95 10.62 C-28.79 8.34 -24.71 5.93 -20.63 3.52 C-19.76 3.02 -18.89 2.52 -18 2 C-17.05 1.42 -17.05 1.42 -16.09 0.82 C-11.09 -1.15 -5.25 -0.6 0 0 Z " fill="#FAFCFC" transform="translate(447,905)"/>
<path d="M0 0 C2.24 1.23 4.47 2.49 6.68 3.77 C7.79 4.39 8.91 5.01 10.06 5.64 C15.65 8.77 21.03 12.09 26.32 15.7 C30.57 18.46 35.09 20.76 39.55 23.15 C43.5 25.32 47.44 27.51 51.37 29.71 C52.86 30.54 52.86 30.54 54.39 31.38 C68.52 39.31 68.52 39.31 71.55 46.15 C72.39 51.62 72.91 57.57 70.28 62.58 C66.63 66.87 63.76 68.41 58.12 68.9 C47.86 68.88 39.9 62.52 31.55 57.15 C29.73 56.04 27.89 54.93 26.05 53.84 C24.94 53.16 24.94 53.16 23.81 52.48 C20.31 50.41 16.72 48.51 13.14 46.58 C10.89 45.34 8.72 44.03 6.55 42.65 C3.54 40.72 0.46 38.98 -2.7 37.27 C-8.69 34.02 -14.63 30.72 -20.45 27.15 C-21.21 26.72 -21.97 26.3 -22.76 25.86 C-24.95 24.42 -26.13 23.43 -27.45 21.15 C-28.49 15.08 -28.64 8.58 -25.82 2.96 C-18.88 -5.25 -9 -4.51 0 0 Z " fill="#FAFCFC" transform="translate(852.4453125,906.8515625)"/>
<path d="M0 0 C4.18 2.83 6.36 5.18 8 10 C8.76 14.93 9.08 19.61 6.99 24.24 C1.61 31.27 -7.33 34.99 -15 39 C-19.62 41.49 -24.1 44.03 -28.44 47 C-31.43 49.04 -34.4 50.75 -37.66 52.31 C-43.85 55.36 -49.65 58.97 -55.5 62.63 C-63.3 67.41 -71.61 72.49 -81 71 C-85.67 68.84 -89.81 66.27 -92.06 61.5 C-93.34 56.71 -93.63 53.67 -91.88 49 C-87.79 42.47 -83.15 39.31 -76.45 35.83 C-72.09 33.52 -67.83 31.05 -63.56 28.56 C-62.33 27.84 -62.33 27.84 -61.06 27.11 C-56.5 24.46 -51.93 21.79 -47.38 19.12 C-43.35 16.77 -39.29 14.49 -35.21 12.25 C-32.79 10.88 -30.43 9.45 -28.06 8 C-26.38 7 -24.69 6 -23 5 C-22.21 4.51 -21.42 4.02 -20.6 3.51 C-14.04 -0.25 -7.51 -1.43 0 0 Z " fill="#FAFCFC" transform="translate(916,635)"/>
<path d="M0 0 C1.02 -0.05 2.03 -0.1 3.08 -0.15 C7.21 0.55 9.51 2.29 12.19 5.38 C14.35 8.53 16.18 11.83 18 15.19 C18.78 16.59 18.78 16.59 19.58 18.02 C20.63 19.92 21.68 21.82 22.73 23.72 C24.71 27.33 26.73 30.91 28.75 34.5 C29.11 35.13 29.46 35.77 29.83 36.42 C32.25 40.73 34.7 45.01 37.17 49.29 C38.1 50.88 39.02 52.48 39.94 54.08 C42.33 58.24 44.78 62.35 47.33 66.42 C56.69 81.53 56.69 81.53 55.76 89.28 C54.98 92.12 54.1 94.12 52.19 96.38 C51.69 97.12 51.2 97.86 50.69 98.62 C46.57 101.51 42.12 101.56 37.19 101.38 C31.08 99.99 26.44 96.19 22.94 91.12 C22.2 89.88 21.47 88.63 20.75 87.38 C20.36 86.71 19.97 86.05 19.57 85.37 C16.68 80.39 14.08 75.29 11.56 70.11 C9.88 66.76 7.97 63.58 6.01 60.39 C3.06 55.51 0.21 50.57 -2.62 45.61 C-4.76 41.87 -6.9 38.18 -9.3 34.6 C-14.95 25.98 -16.72 18.47 -14.81 8.38 C-13.29 5.32 -11.66 3.26 -8.81 1.38 C-5.7 0.34 -3.27 0.11 0 0 Z " fill="#FAFCFC" transform="translate(484.8125,519.625)"/>
<path d="M0 0 C1.21 -0.04 2.41 -0.08 3.65 -0.12 C8.05 0.6 9.31 1.99 12.06 5.44 C13.36 7.48 14.59 9.56 15.75 11.69 C16.44 12.93 17.13 14.17 17.82 15.41 C18.36 16.38 18.36 16.38 18.91 17.38 C20.95 21.02 23.07 24.6 25.19 28.19 C25.61 28.91 26.04 29.64 26.48 30.39 C28.74 34.21 31.01 38.02 33.31 41.81 C35.9 46.1 38.3 50.48 40.67 54.89 C42.8 58.78 45.11 62.52 47.54 66.22 C56.52 80.21 56.52 80.21 55.66 88.98 C54.46 93.95 52.14 96.46 48.44 99.81 C43.8 102.05 40.11 102.55 35.06 101.44 C24.21 95.83 19.28 84.22 13.62 74.02 C10.79 68.93 7.9 63.87 5 58.81 C4.23 57.47 4.23 57.47 3.45 56.1 C0.86 51.58 -1.73 47.06 -4.32 42.55 C-5.28 40.87 -6.23 39.18 -7.18 37.49 C-8.32 35.51 -9.51 33.57 -10.76 31.67 C-15.42 24.26 -16.42 17.03 -14.94 8.44 C-13.29 5.38 -11.92 3.16 -9.12 1.09 C-6.04 0.17 -3.21 0.06 0 0 Z " fill="#FAFCFC" transform="translate(754.9375,989.5625)"/>
<path d="M0 0 C1.87 -0 3.75 -0 5.62 -0.01 C9.54 -0.01 13.45 0 17.36 0.03 C22.37 0.07 27.37 0.06 32.37 0.04 C36.24 0.03 40.1 0.04 43.97 0.05 C45.81 0.06 47.65 0.06 49.5 0.05 C52.08 0.05 54.66 0.07 57.24 0.1 C58.37 0.09 58.37 0.09 59.52 0.08 C64.97 0.17 68.16 1.57 72.68 4.63 C76.97 9.48 78.45 14.94 78.1 21.33 C77.31 25.62 75.04 28.22 72.09 31.26 C68.4 33.35 64.89 33.07 60.72 33.06 C59.82 33.07 58.91 33.08 57.98 33.1 C54.99 33.12 52 33.13 49 33.13 C46.92 33.14 44.84 33.15 42.76 33.16 C38.39 33.18 34.02 33.19 29.65 33.18 C24.07 33.18 18.48 33.23 12.89 33.28 C8.59 33.31 4.29 33.32 -0.02 33.31 C-2.07 33.32 -4.13 33.33 -6.19 33.35 C-9.08 33.38 -11.96 33.38 -14.85 33.36 C-15.69 33.37 -16.54 33.39 -17.41 33.41 C-23.83 33.31 -27.75 31.11 -32.32 26.63 C-34.63 22.01 -34.01 15.36 -32.78 10.46 C-30.65 5.94 -27.04 3.78 -22.65 1.68 C-15.35 -0.62 -7.58 -0.06 0 0 Z " fill="#FAFCFC" transform="translate(888.32421875,787.37109375)"/>
<path d="M0 0 C4.95 0 9.9 0 15 0 C18.2 7.31 20.88 14.57 23.19 22.19 C24.84 27.6 26.8 32.8 29 38 C29.66 39.65 30.32 41.3 31 43 C31.33 28.81 31.66 14.62 32 0 C35.96 0 39.92 0 44 0 C50.22 6.22 47.23 29.32 47.23 37.25 C47.23 39.86 47.22 42.47 47.21 45.08 C47.19 48.44 47.19 51.8 47.19 55.16 C47.19 58.39 47.18 61.62 47.17 64.85 C47.17 66.05 47.17 67.26 47.16 68.51 C47.16 69.61 47.15 70.71 47.15 71.85 C47.14 73.31 47.14 73.31 47.13 74.8 C47 77 47 77 46 78 C45.76 80.53 45.58 83.03 45.44 85.56 C45.39 86.27 45.35 86.98 45.31 87.72 C45.2 89.48 45.1 91.24 45 93 C40.94 93.34 37.05 93.48 33 93 C30.42 90.75 30.03 90.09 29 87 C28.67 86.02 28.34 85.04 28 84.02 C27.31 81.86 26.65 79.69 26.03 77.51 C24.8 73.3 23.4 69.16 22 65 C21.39 63.18 20.78 61.35 20.18 59.53 C19.87 58.61 19.56 57.69 19.25 56.74 C17.83 52.5 16.42 48.25 15 44 C14.16 49.94 13.8 55.76 13.68 61.75 C13.66 62.65 13.64 63.55 13.62 64.47 C13.56 67.32 13.5 70.16 13.44 73 C13.39 74.94 13.35 76.88 13.31 78.82 C13.2 83.54 13.1 88.27 13 93 C9.04 93 5.08 93 1 93 C-0.65 89.7 -0.13 86.04 -0.11 82.42 C-0.11 81.09 -0.11 81.09 -0.11 79.73 C-0.11 76.79 -0.11 73.84 -0.1 70.9 C-0.1 68.86 -0.09 66.82 -0.09 64.79 C-0.09 59.42 -0.08 54.05 -0.07 48.68 C-0.06 43.2 -0.05 37.73 -0.05 32.25 C-0.04 21.5 -0.02 10.75 0 0 Z " fill="#FAFCFA" transform="translate(412,110)"/>
<path d="M0 0 C0.81 -0.01 1.62 -0.01 2.46 -0.02 C5.12 -0.03 7.79 -0.03 10.45 -0.03 C12.31 -0.03 14.17 -0.03 16.03 -0.04 C19.93 -0.05 23.82 -0.05 27.71 -0.04 C32.7 -0.04 37.68 -0.05 42.66 -0.08 C46.5 -0.09 50.34 -0.09 54.18 -0.09 C56.02 -0.09 57.86 -0.09 59.7 -0.1 C62.27 -0.12 64.84 -0.11 67.41 -0.1 C68.16 -0.11 68.92 -0.11 69.69 -0.12 C75.34 -0.06 79.51 1.14 83.6 5.11 C87.38 10.49 88.62 14.87 88.3 21.46 C87.37 25.84 85.15 28.51 81.7 31.27 C78.37 32.94 74.63 32.45 70.96 32.47 C70.05 32.48 69.15 32.48 68.21 32.49 C65.21 32.52 62.2 32.53 59.19 32.55 C58.16 32.55 57.14 32.56 56.08 32.56 C50.65 32.59 45.21 32.61 39.78 32.62 C34.16 32.64 28.55 32.69 22.94 32.74 C18.63 32.77 14.31 32.78 9.99 32.79 C7.93 32.79 5.86 32.81 3.79 32.83 C0.89 32.87 -2.01 32.87 -4.91 32.86 C-5.76 32.87 -6.61 32.89 -7.48 32.91 C-13.62 32.84 -16.67 31.34 -21.3 27.27 C-23.57 22.83 -23.92 18.19 -23.3 13.27 C-21.48 8.12 -18.73 5.41 -14.3 2.27 C-9.52 0.27 -5.11 -0.02 0 0 Z " fill="#FAFCFC" transform="translate(336.296875,787.725341796875)"/>
<path d="M0 0 C3.12 2.12 3.12 2.12 5 5 C5.6 5.87 6.2 6.73 6.81 7.62 C8.89 13.54 9.23 19.05 6.79 24.91 C5.29 27.68 3.69 30.34 2 33 C1.33 34.18 0.66 35.37 0 36.56 C-1.62 39.35 -3.27 42.11 -4.94 44.88 C-7.74 49.52 -10.39 54.24 -13 59 C-15.75 64 -18.55 68.96 -21.44 73.88 C-23.76 77.84 -26.01 81.83 -28.19 85.88 C-29.12 87.58 -30.06 89.29 -31 91 C-31.62 92.13 -32.24 93.27 -32.88 94.44 C-36.17 98.41 -39.98 100.44 -45.05 101.38 C-50.54 101.7 -53.68 100.07 -58 97 C-61.45 93.37 -62.61 91.01 -62.69 86 C-62.43 78.8 -59.94 73.94 -56.17 67.9 C-54.37 64.98 -52.68 62 -50.98 59.03 C-49.56 56.57 -48.14 54.11 -46.71 51.66 C-41.98 43.54 -37.28 35.4 -32.81 27.12 C-30.75 23.31 -28.56 19.62 -26.21 15.98 C-24.87 13.78 -23.69 11.53 -22.5 9.25 C-17.33 -0.22 -10.1 -1.1 0 0 Z " fill="#FAFCFC" transform="translate(532,990)"/>
<path d="M0 0 C3.12 2.12 3.12 2.12 5 5 C5.6 5.87 6.2 6.73 6.81 7.62 C8.81 13.31 9.37 18.93 6.86 24.55 C5.32 27.09 3.67 29.54 2 32 C1.06 33.65 0.15 35.32 -0.75 37 C-7.98 50.37 -15.45 63.59 -23.18 76.68 C-25.65 80.89 -28.09 85.07 -30.23 89.46 C-32.5 94 -34.54 97.44 -39 100 C-44.84 101.08 -50.78 101.08 -56.12 98.25 C-59.68 95.47 -61.7 93.68 -62.5 89.15 C-62.66 80.46 -60.71 75.2 -56 68 C-54.99 66.34 -53.99 64.67 -53 63 C-52.5 62.18 -52 61.36 -51.49 60.51 C-49.45 57.08 -47.57 53.58 -45.68 50.08 C-42.19 43.68 -38.59 37.34 -35 31 C-34.5 30.12 -34 29.24 -33.49 28.33 C-31.89 25.51 -30.29 22.69 -28.69 19.88 C-28.18 18.99 -27.68 18.1 -27.16 17.18 C-19.91 4.46 -15.92 -1.76 0 0 Z " fill="#FAFCFC" transform="translate(801,520)"/>
<path d="M0 0 C2.48 -0.31 4.72 -0.42 7.2 -0.4 C7.92 -0.4 8.63 -0.4 9.37 -0.41 C10.89 -0.41 12.4 -0.4 13.92 -0.39 C16.23 -0.38 18.53 -0.39 20.84 -0.41 C22.32 -0.41 23.79 -0.4 25.27 -0.4 C25.95 -0.4 26.63 -0.41 27.34 -0.42 C31.95 -0.35 35.14 0.46 39 3 C45.28 10.82 45.85 19.67 45.56 29.25 C45.5 31.39 45.48 33.54 45.47 35.68 C45.26 51.74 45.26 51.74 39 58 C33.72 61.17 28.1 61.68 22.07 62.35 C18.75 62.47 18.75 62.47 16 64 C15.84 66.14 15.75 68.29 15.68 70.44 C15.64 71.75 15.6 73.05 15.56 74.4 C15.52 75.79 15.48 77.17 15.44 78.56 C15.39 79.96 15.35 81.35 15.31 82.74 C15.2 86.16 15.1 89.58 15 93 C12.54 93.03 10.08 93.05 7.62 93.06 C6.93 93.07 6.23 93.08 5.51 93.09 C0.23 93.11 0.23 93.11 -2 92 C-2.05 80.45 -2.08 68.9 -2.1 57.34 C-2.11 51.98 -2.13 46.62 -2.15 41.25 C-2.17 36.08 -2.18 30.9 -2.19 25.73 C-2.19 23.75 -2.2 21.78 -2.21 19.8 C-2.23 17.04 -2.23 14.27 -2.23 11.51 C-2.23 10.69 -2.24 9.87 -2.25 9.02 C-2.23 5.15 -2.2 3.3 0 0 Z " fill="#FAFCFC" transform="translate(550,247)"/>
<path d="M0 0 C4.29 3.69 7.45 7.47 7.88 13.27 C7.91 14.9 7.92 16.54 7.9 18.17 C7.91 19.07 7.91 19.97 7.92 20.9 C7.95 23.85 7.93 26.8 7.91 29.75 C7.92 31.81 7.92 33.88 7.93 35.94 C7.94 40.25 7.93 44.56 7.9 48.87 C7.87 54.39 7.89 59.91 7.92 65.43 C7.94 69.68 7.93 73.94 7.92 78.19 C7.92 80.22 7.92 82.26 7.93 84.29 C7.94 87.14 7.92 89.98 7.9 92.83 C7.91 93.67 7.92 94.5 7.93 95.37 C7.82 101.25 6.48 103.83 2.25 107.94 C-2.28 110.76 -7.5 111.69 -12.75 110.94 C-18.51 108.59 -21.22 105.7 -23.89 100.19 C-25.28 96.55 -25.32 93.14 -25.28 89.28 C-25.29 88.45 -25.3 87.63 -25.31 86.78 C-25.33 84.07 -25.33 81.37 -25.32 78.66 C-25.32 76.77 -25.33 74.87 -25.34 72.97 C-25.35 69.01 -25.34 65.05 -25.33 61.09 C-25.31 56.02 -25.33 50.96 -25.37 45.9 C-25.39 41.99 -25.39 38.08 -25.38 34.17 C-25.38 32.3 -25.39 30.44 -25.4 28.57 C-25.53 9.12 -25.53 9.12 -19.75 2.94 C-13.82 -1.53 -6.99 -2.7 0 0 Z " fill="#FAFCFC" transform="translate(647.75,1021.0625)"/>
<path d="M0 0 C2.83 1.91 4.35 4.04 6 7 C6.99 8.49 6.99 8.49 8 10 C8.21 12.93 8.29 15.76 8.29 18.69 C8.3 20.02 8.3 20.02 8.31 21.38 C8.33 24.32 8.33 27.27 8.34 30.21 C8.34 32.25 8.35 34.3 8.36 36.34 C8.37 40.63 8.37 44.92 8.37 49.2 C8.37 54.69 8.4 60.19 8.43 65.68 C8.45 69.9 8.46 74.12 8.46 78.35 C8.46 80.37 8.47 82.4 8.48 84.42 C8.5 87.25 8.5 90.09 8.49 92.92 C8.5 93.76 8.51 94.59 8.52 95.45 C8.46 100.77 7.5 103.75 4 108 C0.05 111.59 -4.17 111.5 -9.28 111.35 C-14.38 110.69 -17.46 108.49 -21.16 104.91 C-23.69 100.9 -23.56 97.74 -23.52 93.08 C-23.52 92.19 -23.53 91.31 -23.54 90.39 C-23.56 87.46 -23.54 84.53 -23.53 81.6 C-23.53 79.56 -23.54 77.52 -23.54 75.47 C-23.55 71.2 -23.54 66.92 -23.52 62.65 C-23.5 57.17 -23.51 51.7 -23.54 46.22 C-23.55 42 -23.55 37.79 -23.54 33.58 C-23.53 31.56 -23.54 29.54 -23.55 27.52 C-23.56 24.69 -23.54 21.87 -23.52 19.05 C-23.53 18.22 -23.53 17.39 -23.54 16.53 C-23.45 9.98 -21.34 6.36 -16.68 1.67 C-11.57 -1.51 -5.77 -1.03 0 0 Z " fill="#FAFCFC" transform="translate(647,479)"/>
<path d="M0 0 C0.84 -0.02 1.67 -0.03 2.54 -0.05 C7.32 -0.05 10.61 0.14 14.44 3.31 C16.2 5.4 16.2 5.4 17.69 7.69 C18.19 8.44 18.69 9.19 19.2 9.96 C21.6 14.53 21.57 18.97 21.56 24.06 C21.57 25.79 21.57 25.79 21.57 27.55 C21.44 30.31 21.44 30.31 20.44 31.31 C18.48 31.44 16.52 31.49 14.56 31.5 C12.96 31.52 12.96 31.52 11.32 31.54 C8.44 31.31 8.44 31.31 5.44 29.31 C5.25 27.11 5.25 27.11 5.44 24.5 C5.52 21.25 5.43 19.3 4.38 16.19 C2.45 13.95 2.45 13.95 -1.12 13.88 C-4.62 13.96 -4.62 13.96 -6.56 16.31 C-7.49 19.13 -7.71 21.77 -7.78 24.72 C-7.81 25.59 -7.83 26.45 -7.85 27.34 C-7.87 28.27 -7.89 29.2 -7.91 30.16 C-7.94 31.13 -7.96 32.09 -7.98 33.09 C-8.03 35.14 -8.08 37.19 -8.12 39.24 C-8.19 42.34 -8.26 45.44 -8.34 48.54 C-8.39 50.54 -8.43 52.54 -8.48 54.54 C-8.5 55.45 -8.52 56.37 -8.55 57.31 C-8.67 63.7 -8.26 69.95 -7.56 76.31 C-3.68 77.61 -0.66 77.44 3.44 77.31 C4.65 76.32 4.65 76.32 4.55 74.36 C4.54 73.11 4.54 73.11 4.54 71.84 C4.53 70.49 4.53 70.49 4.53 69.12 C4.52 68.17 4.51 67.22 4.5 66.25 C4.5 65.3 4.49 64.35 4.49 63.37 C4.47 61.02 4.46 58.67 4.44 56.31 C2.46 55.98 0.48 55.65 -1.56 55.31 C-1.56 51.68 -1.56 48.05 -1.56 44.31 C0.82 43.12 2.31 43.18 4.97 43.18 C6.31 43.18 6.31 43.18 7.67 43.18 C8.61 43.18 9.54 43.18 10.5 43.19 C11.44 43.18 12.37 43.18 13.34 43.18 C14.67 43.18 14.67 43.18 16.04 43.18 C16.86 43.18 17.68 43.18 18.52 43.18 C20.44 43.31 20.44 43.31 21.44 44.31 C21.54 45.81 21.57 47.31 21.57 48.82 C21.57 49.77 21.57 50.73 21.58 51.72 C21.57 52.76 21.57 53.8 21.57 54.88 C21.57 55.94 21.57 57 21.57 58.09 C21.57 60.34 21.57 62.59 21.57 64.84 C21.56 68.3 21.57 71.75 21.57 75.21 C21.57 77.39 21.57 79.57 21.57 81.75 C21.57 82.79 21.57 83.83 21.58 84.91 C21.57 86.34 21.57 86.34 21.57 87.81 C21.57 88.66 21.57 89.5 21.56 90.38 C21.44 92.31 21.44 92.31 20.44 93.31 C18.48 93.48 18.48 93.48 16.06 93.5 C15.27 93.51 14.48 93.53 13.66 93.54 C11.44 93.31 11.44 93.31 8.44 91.31 C5.8 91.63 3.81 92.13 1.44 93.31 C-6.01 94 -11.56 93.97 -17.56 89.31 C-22.05 85.04 -24.27 80.52 -24.83 74.34 C-24.84 73.29 -24.85 72.25 -24.85 71.17 C-24.87 69.98 -24.88 68.79 -24.89 67.56 C-24.89 66.29 -24.9 65.01 -24.9 63.7 C-24.9 62.36 -24.91 61.02 -24.92 59.69 C-24.93 56.89 -24.93 54.09 -24.93 51.29 C-24.93 47.73 -24.96 44.16 -24.99 40.6 C-25.02 37.84 -25.02 35.08 -25.02 32.32 C-25.02 30.37 -25.04 28.42 -25.07 26.48 C-25.02 17.67 -23.78 11.3 -18.19 4.38 C-12.61 -0 -6.79 -0.03 0 0 Z " fill="#FAFCFA" transform="translate(582.5625,109.6875)"/>
<path d="M0 0 C5.94 0 11.88 0 18 0 C20.49 9.52 22.64 18.99 24.43 28.66 C25.68 35.42 27.07 42.15 28.5 48.88 C30.22 57.04 31.84 65.22 33.31 73.44 C33.48 74.37 33.66 75.29 33.83 76.25 C34.82 81.92 35.16 87.24 35 93 C30.38 93 25.76 93 21 93 C18.46 87.91 17.61 85.37 17 80 C16.67 79.01 16.34 78.02 16 77 C11.05 77.33 6.1 77.66 1 78 C0.69 80.29 0.38 82.58 0.06 84.94 C-0.88 91.88 -0.88 91.88 -2 93 C-4.19 93.07 -6.38 93.08 -8.56 93.06 C-9.76 93.05 -10.96 93.04 -12.19 93.04 C-13.58 93.02 -13.58 93.02 -15 93 C-15.87 88.23 -15.98 84.65 -14.88 79.94 C-13.67 74.44 -12.63 68.94 -11.72 63.39 C-11.55 62.37 -11.55 62.37 -11.38 61.34 C-10.93 58.58 -10.48 55.81 -10.04 53.04 C-9.73 51.07 -9.41 49.1 -9.09 47.13 C-8.9 45.98 -8.72 44.82 -8.52 43.63 C-8 41 -8 41 -7 40 C-6.41 37.05 -5.87 34.11 -5.37 31.15 C-5.22 30.27 -5.06 29.38 -4.9 28.47 C-4.41 25.62 -3.92 22.78 -3.44 19.94 C-3.11 18.01 -2.77 16.09 -2.44 14.17 C-1.62 9.45 -0.81 4.72 0 0 Z " fill="#FAFCFC" transform="translate(716,110)"/>
<path d="M0 0 C14.29 -0.27 14.29 -0.27 17.88 2.39 C19.07 4.62 19.56 6.51 20 9 C20.19 10.01 20.38 11.03 20.58 12.07 C20.95 14.3 21.28 16.53 21.57 18.77 C21.94 21.56 22.42 24.26 23 27 C24.02 31.88 24.74 36.79 25.44 41.73 C25.96 44.75 26.67 47.68 27.43 50.66 C28.63 55.61 29.54 60.62 30.5 65.62 C30.83 67.35 30.83 67.35 31.17 69.11 C34.57 87.1 34.57 87.1 35 93 C34 94 34 94 30.84 94.1 C29.55 94.09 28.26 94.07 26.94 94.06 C25 94.05 25 94.05 23.03 94.04 C22.03 94.02 21.03 94.01 20 94 C17.65 89.54 16.57 86.01 16 81 C15.67 80.01 15.34 79.02 15 78 C10.38 78.33 5.76 78.66 1 79 C0.8 80 0.59 81 0.38 82.03 C0.11 83.32 -0.16 84.61 -0.44 85.94 C-0.7 87.23 -0.97 88.51 -1.25 89.84 C-2 93 -2 93 -3 94 C-4.98 94.13 -6.96 94.18 -8.94 94.19 C-10.02 94.2 -11.1 94.22 -12.21 94.23 C-15 94 -15 94 -17 92 C-17.06 89.95 -17.06 89.95 -16.79 87.46 C-16.7 86.57 -16.61 85.68 -16.51 84.76 C-16.41 83.83 -16.3 82.9 -16.19 81.94 C-16.09 81 -16 80.06 -15.9 79.1 C-15.15 72.15 -15.15 72.15 -14 71 C-13.13 67.7 -12.54 64.34 -11.88 61 C-11.55 59.4 -11.55 59.4 -11.23 57.76 C-9.77 50.32 -8.45 42.87 -7.18 35.39 C-7.03 34.47 -6.87 33.56 -6.71 32.61 C-5.94 27.99 -5.17 23.38 -4.41 18.75 C-4.12 17.03 -3.84 15.3 -3.55 13.58 C-3.42 12.79 -3.3 11.99 -3.17 11.18 C-2.5 7.21 -1.69 3.68 0 0 Z " fill="#FAFCFB" transform="translate(651,109)"/>
<path d="M0 0 C2.6 -0.08 5.21 -0.14 7.81 -0.19 C8.55 -0.21 9.29 -0.24 10.05 -0.26 C15.55 -0.34 15.55 -0.34 17.67 1.27 C19.18 3.24 19.62 4.6 20.1 7.03 C20.26 7.81 20.42 8.6 20.58 9.41 C20.74 10.24 20.9 11.08 21.06 11.94 C21.23 12.8 21.41 13.66 21.58 14.55 C22.65 19.94 23.59 25.34 24.45 30.76 C25.16 34.94 26.02 39.09 26.88 43.25 C29.04 53.85 30.79 64.5 32.52 75.18 C33.17 79 33.89 82.8 34.63 86.61 C35 89 35 89 35 93 C32.73 93.13 30.46 93.23 28.19 93.31 C26.92 93.37 25.66 93.43 24.36 93.49 C21 93 21 93 19.16 90.81 C17.42 86.6 16.23 82.39 15 78 C10.38 78 5.76 78 1 78 C0.87 79 0.73 80 0.6 81.03 C0.42 82.32 0.24 83.61 0.06 84.94 C-0.11 86.23 -0.29 87.51 -0.46 88.84 C-1 92 -1 92 -2 93 C-4.19 93.07 -6.38 93.08 -8.56 93.06 C-9.76 93.05 -10.96 93.04 -12.19 93.04 C-13.58 93.02 -13.58 93.02 -15 93 C-18.99 85.03 -13.76 70.86 -11.88 62.63 C-10.27 55.56 -9.16 48.59 -8.46 41.38 C-7.97 37.77 -7.02 34.49 -6 31 C-5.49 28.31 -5.01 25.64 -4.56 22.94 C-3.25 15.24 -1.7 7.62 0 0 Z " fill="#FAFCFB" transform="translate(612,247)"/>
<path d="M0 0 C0.84 -0.02 1.67 -0.03 2.54 -0.05 C7.32 -0.05 10.6 0.15 14.44 3.31 C15.95 5.11 15.95 5.11 17.12 7.06 C17.52 7.7 17.92 8.33 18.32 8.98 C21.07 14.72 21.67 19.94 21.56 26.25 C21.55 26.93 21.54 27.62 21.54 28.32 C21.51 29.99 21.48 31.65 21.44 33.31 C17.02 34.79 12.7 34.91 8.22 33.73 C6.44 32.31 6.44 32.31 5.93 29.2 C5.91 27.96 5.89 26.72 5.88 25.44 C5.85 20.45 5.85 20.45 4.13 15.89 C2.39 13.96 2.39 13.96 -1.06 13.88 C-4.46 14.02 -4.46 14.02 -6.44 15.62 C-8.57 18.82 -8.69 21.64 -8.71 25.36 C-8.71 26.39 -8.72 27.42 -8.73 28.48 C-8.73 29.59 -8.73 30.7 -8.73 31.84 C-8.73 32.98 -8.74 34.12 -8.74 35.3 C-8.75 37.71 -8.75 40.12 -8.75 42.54 C-8.75 46.23 -8.77 49.93 -8.79 53.62 C-8.79 55.97 -8.79 58.31 -8.79 60.65 C-8.8 61.76 -8.81 62.87 -8.81 64.01 C-8.81 65.04 -8.81 66.07 -8.81 67.13 C-8.81 68.04 -8.81 68.94 -8.81 69.88 C-8.54 72.49 -7.97 74.1 -6.56 76.31 C-4.35 77.42 -3.02 77.51 -0.56 77.56 C0.14 77.59 0.84 77.61 1.56 77.64 C2.18 77.53 2.8 77.42 3.44 77.31 C5.52 74.18 5.71 73.24 5.85 69.64 C5.89 68.75 5.93 67.86 5.97 66.94 C6.02 65.55 6.02 65.55 6.06 64.12 C6.1 63.18 6.14 62.24 6.18 61.28 C6.27 58.95 6.36 56.63 6.44 54.31 C8.56 54.26 10.69 54.22 12.81 54.19 C14 54.16 15.18 54.14 16.4 54.12 C19.44 54.31 19.44 54.31 21.44 56.31 C21.89 59.67 21.76 63.06 21.75 66.44 C21.77 67.36 21.78 68.29 21.8 69.24 C21.8 76.19 21.15 82.06 16.54 87.59 C15.53 88.41 15.53 88.41 14.5 89.25 C13.83 89.82 13.16 90.38 12.47 90.96 C6.75 94.76 -1 93.83 -7.56 93.31 C-14.67 91.45 -19.54 87.71 -23.31 81.38 C-25.79 75.3 -25.77 69.08 -25.91 62.61 C-25.95 61.23 -25.95 61.23 -25.98 59.82 C-26.03 57.89 -26.08 55.96 -26.12 54.03 C-26.19 51.06 -26.27 48.09 -26.34 45.12 C-26.39 43.24 -26.43 41.36 -26.48 39.48 C-26.5 38.59 -26.52 37.71 -26.55 36.79 C-26.68 30.54 -26.68 30.54 -25.56 28.31 C-25.46 26.11 -25.38 23.9 -25.31 21.69 C-24.9 15.24 -23.74 11.21 -19.56 6.31 C-18.92 5.53 -18.28 4.75 -17.62 3.94 C-12.39 -0.19 -6.35 -0.02 0 0 Z " fill="#FAFCFA" transform="translate(780.5625,109.6875)"/>
<path d="M0 0 C1.36 -0.02 1.36 -0.02 2.75 -0.04 C3.62 -0.04 4.5 -0.04 5.4 -0.04 C6.6 -0.05 6.6 -0.05 7.82 -0.06 C10.33 0.22 11.92 0.88 14.06 2.19 C15.48 3.96 15.48 3.96 16.69 6 C17.09 6.67 17.5 7.33 17.91 8.02 C20.37 12.66 21.32 16.15 21.25 21.44 C21.24 22.49 21.24 23.55 21.23 24.64 C21.06 27.19 21.06 27.19 20.06 28.19 C18.09 28.29 16.1 28.32 14.12 28.31 C12.5 28.32 12.5 28.32 10.85 28.32 C8.06 28.19 8.06 28.19 6.06 27.19 C5.68 25.26 5.68 25.26 5.5 22.88 C5.26 19.87 4.87 17.1 4.06 14.19 C2.18 14.13 2.18 14.13 0.25 14.06 C-0.46 14.04 -1.17 14.02 -1.89 13.99 C-4.25 14.05 -4.25 14.05 -6.94 16.19 C-7.81 19.6 -7.64 22.75 -6.94 26.19 C-4.06 30.98 0.13 34.28 4.46 37.72 C12.41 44.99 20.3 55.58 21.4 66.52 C21.49 74.82 21.21 81.74 15.34 88.03 C9.36 93.41 3.83 93.7 -4.05 93.54 C-10.88 92.92 -15.75 90.43 -20.5 85.56 C-22.56 82.17 -23.08 79.41 -23.25 75.52 C-23.32 74.18 -23.32 74.18 -23.38 72.81 C-23.42 71.89 -23.46 70.96 -23.5 70 C-23.54 69.06 -23.59 68.12 -23.63 67.15 C-23.74 64.83 -23.84 62.51 -23.94 60.19 C-20.56 59.06 -18.35 59.21 -14.81 59.5 C-13.74 59.58 -12.66 59.66 -11.55 59.74 C-10.69 59.89 -9.83 60.03 -8.94 60.19 C-7.02 64.02 -7.58 68.78 -7.41 73 C-7.26 74.05 -7.1 75.1 -6.94 76.19 C-4.04 78.54 -4.04 78.54 -0.38 78.06 C3 77.52 3 77.52 4.56 75.62 C5.61 70.5 4.81 66.52 2.31 62.06 C1.57 61.11 0.83 60.16 0.06 59.19 C-0.7 58.2 -1.46 57.21 -2.25 56.19 C-4.11 53.99 -6.09 52.15 -8.31 50.31 C-14.67 45.02 -21.18 38.5 -22.94 30.19 C-24.07 12.07 -24.07 12.07 -18.94 5.19 C-12.64 0.18 -7.69 0.01 0 0 Z " fill="#FAFCFB" transform="translate(920.9375,109.8125)"/>
<path d="M0 0 C0.84 -0.02 1.68 -0.03 2.55 -0.05 C7.38 -0.05 10.58 0.2 14.5 3.31 C20.1 9.07 20.61 14.55 20.62 22.25 C20.59 24.27 20.55 26.29 20.5 28.31 C18.54 28.34 16.58 28.36 14.62 28.38 C12.99 28.39 12.99 28.39 11.32 28.41 C8.5 28.31 8.5 28.31 6.5 27.31 C6.36 26.26 6.21 25.21 6.06 24.12 C5.49 20.27 4.39 17.69 2.5 14.31 C1.22 14.25 -0.06 14.19 -1.38 14.12 C-2.09 14.09 -2.81 14.06 -3.55 14.02 C-4.2 14.12 -4.84 14.21 -5.5 14.31 C-7.98 18.04 -8.02 21 -7.5 25.31 C-5.75 29.79 -2.32 32.33 1.25 35.38 C9.33 42.33 18.79 51.22 20.5 62.31 C20.65 64.93 20.73 67.51 20.75 70.12 C20.77 70.81 20.79 71.5 20.81 72.21 C20.86 78.04 19.61 82.47 16.07 87.24 C15.59 87.7 15.12 88.15 14.62 88.62 C13.92 89.33 13.92 89.33 13.2 90.05 C6.89 94.74 -1.05 93.95 -8.5 93.31 C-13.98 91.78 -17.83 88.65 -21.5 84.31 C-22.48 81.37 -22.62 79.49 -22.6 76.43 C-22.59 75.49 -22.59 74.55 -22.59 73.58 C-22.58 72.12 -22.58 72.12 -22.56 70.62 C-22.56 69.64 -22.55 68.65 -22.55 67.63 C-22.54 65.19 -22.52 62.75 -22.5 60.31 C-20.35 60.29 -18.21 60.27 -16.06 60.25 C-14.87 60.24 -13.67 60.23 -12.44 60.21 C-9.5 60.31 -9.5 60.31 -8.5 61.31 C-8.33 64.49 -8.2 67.67 -8.16 70.85 C-8.11 73.12 -8.11 73.12 -7.5 76.31 C-4.39 78.79 -1.37 78.49 2.5 78.31 C4.52 74.15 5.05 70.92 4.5 66.31 C0.9 58.42 -5.8 52.86 -11.99 47.02 C-18.16 41.07 -22.47 36.16 -23 27.37 C-23 25.64 -22.98 23.91 -22.94 22.19 C-22.94 21.32 -22.95 20.45 -22.96 19.56 C-22.91 14.41 -22.36 10.76 -19.5 6.31 C-13.46 0.59 -7.97 -0.03 0 0 Z " fill="#FAFCFB" transform="translate(871.5,109.6875)"/>
<path d="M0 0 C1.93 0.02 1.93 0.02 3.9 0.04 C5.19 0.04 6.48 0.05 7.81 0.06 C8.81 0.07 9.81 0.09 10.84 0.1 C13.99 5.96 14.6 11.87 15.38 18.41 C15.74 21.28 16.17 24.03 16.78 26.85 C18.03 32.72 18.89 38.65 19.79 44.59 C19.91 45.38 20.03 46.18 20.16 47 C20.26 47.72 20.37 48.43 20.48 49.17 C20.83 51.31 20.83 51.31 21.84 54.1 C22.5 54.1 23.16 54.1 23.84 54.1 C25.16 46.95 26.41 39.79 27.57 32.62 C27.72 31.68 27.87 30.74 28.03 29.77 C28.51 26.82 28.99 23.86 29.46 20.91 C29.79 18.89 30.12 16.87 30.45 14.85 C31.25 9.93 32.04 5.01 32.84 0.1 C34.99 0.07 37.13 0.05 39.28 0.04 C40.47 0.02 41.67 0.01 42.9 0 C45.84 0.1 45.84 0.1 46.84 1.1 C48.02 9.5 46.02 17.33 44.04 25.42 C41.89 34.42 40.35 43.48 38.84 52.6 C37.14 62.86 35.35 73.07 33.03 83.22 C32.82 84.13 32.61 85.03 32.4 85.97 C30.98 91.95 30.98 91.95 29.84 93.1 C27.35 93.22 24.9 93.28 22.4 93.29 C21.71 93.3 21.01 93.31 20.3 93.32 C18.48 93.33 16.66 93.22 14.84 93.1 C9.61 87.86 9.5 78.87 8.75 71.89 C7.91 64.74 6.32 57.79 4.74 50.77 C3.02 43.12 1.63 35.46 0.42 27.71 C-0.04 24.82 -0.58 21.97 -1.16 19.1 C-1.72 16.02 -2.26 12.93 -2.79 9.85 C-2.93 9.02 -3.08 8.19 -3.23 7.34 C-3.58 5.27 -3.88 3.18 -4.16 1.1 C-3.16 0.1 -3.16 0.1 0 0 Z " fill="#FAFCFB" transform="translate(973.16015625,109.90234375)"/>
<path d="M0 0 C4.92 3.82 8.61 9.9 9.39 16.06 C9.39 17.14 9.4 18.22 9.4 19.34 C9.42 20.57 9.43 21.81 9.44 23.08 C9.44 24.42 9.44 25.75 9.43 27.09 C9.44 28.47 9.44 29.86 9.45 31.24 C9.46 34.14 9.46 37.03 9.45 39.93 C9.43 43.62 9.45 47.32 9.48 51.01 C9.5 53.87 9.5 56.73 9.5 59.59 C9.5 61.61 9.51 63.62 9.53 65.64 C9.47 73.6 8.91 79.27 3.69 85.58 C0.97 88.26 -1.13 89.02 -4.88 89.69 C-9.9 89.35 -13.65 86.61 -17 83 C-19.47 78.75 -20.38 75.67 -20.39 70.77 C-20.4 69.56 -20.41 68.35 -20.42 67.1 C-20.41 65.8 -20.4 64.5 -20.4 63.17 C-20.4 61.81 -20.4 60.45 -20.41 59.09 C-20.41 56.24 -20.41 53.4 -20.39 50.55 C-20.37 46.93 -20.38 43.3 -20.4 39.68 C-20.41 36.87 -20.41 34.06 -20.4 31.26 C-20.4 29.28 -20.41 27.3 -20.42 25.32 C-20.36 17.43 -20.09 10.02 -15.12 3.56 C-10.64 0.27 -5.55 -1.43 0 0 Z " fill="#FAC51B" transform="translate(645,681)"/>
<path d="M0 0 C4.95 -0.02 9.9 -0.04 14.84 -0.05 C16.53 -0.06 18.21 -0.07 19.9 -0.08 C22.31 -0.09 24.73 -0.09 27.15 -0.1 C27.9 -0.1 28.66 -0.11 29.44 -0.11 C34.77 -0.11 34.77 -0.11 37 1 C37.03 2.81 37.05 4.62 37.06 6.44 C37.07 7.45 37.09 8.46 37.1 9.5 C37 12 37 12 36 13 C34.67 13.14 33.34 13.23 32 13.28 C31.2 13.32 30.39 13.36 29.56 13.39 C27.85 13.46 26.15 13.54 24.44 13.61 C23.63 13.64 22.83 13.68 22 13.72 C20.89 13.76 20.89 13.76 19.75 13.81 C17.97 13.82 17.97 13.82 17 15 C16.9 16.55 16.87 18.1 16.87 19.66 C16.87 20.6 16.86 21.54 16.86 22.5 C16.87 23.99 16.87 23.99 16.88 25.5 C16.87 26.49 16.87 27.48 16.86 28.5 C16.87 29.91 16.87 29.91 16.87 31.34 C16.87 32.21 16.87 33.08 16.87 33.97 C16.78 36 16.78 36 18 37 C20 37.21 22 37.37 24 37.5 C29.89 37.89 29.89 37.89 31 39 C31.07 41.02 31.08 43.04 31.06 45.06 C31.05 46.17 31.04 47.27 31.04 48.41 C31.02 49.26 31.01 50.12 31 51 C30.07 51.06 29.15 51.12 28.19 51.18 C26.99 51.27 25.8 51.35 24.56 51.44 C23.37 51.52 22.17 51.6 20.94 51.68 C18.11 51.68 18.11 51.68 17 53 C16.84 54.85 16.75 56.71 16.68 58.57 C16.64 59.69 16.6 60.82 16.56 61.97 C16.52 63.16 16.48 64.34 16.44 65.56 C16.39 66.75 16.35 67.94 16.31 69.16 C16.2 72.11 16.1 75.05 16 78 C20.34 79.45 24.75 79.39 29.28 79.61 C34.8 79.9 34.8 79.9 37 81 C37.03 82.81 37.05 84.62 37.06 86.44 C37.07 87.45 37.09 88.46 37.1 89.5 C37 92 37 92 36 93 C33.43 93.11 30.89 93.16 28.32 93.17 C27.16 93.17 27.16 93.17 25.98 93.18 C24.35 93.18 22.71 93.19 21.08 93.19 C18.58 93.19 16.07 93.21 13.57 93.22 C11.98 93.23 10.4 93.23 8.82 93.23 C8.06 93.24 7.31 93.24 6.54 93.25 C1.23 93.23 1.23 93.23 -1 91 C-1.19 88.18 -1.26 85.46 -1.24 82.63 C-1.24 81.77 -1.25 80.9 -1.25 80.01 C-1.25 77.14 -1.24 74.28 -1.23 71.41 C-1.23 69.42 -1.23 67.43 -1.23 65.44 C-1.23 61.27 -1.22 57.1 -1.21 52.93 C-1.19 47.58 -1.18 42.23 -1.19 36.87 C-1.19 32.77 -1.18 28.66 -1.17 24.56 C-1.17 22.58 -1.17 20.61 -1.17 18.63 C-1.16 15.88 -1.16 13.12 -1.15 10.37 C-1.15 9.54 -1.15 8.72 -1.15 7.87 C-1.11 2.23 -1.11 2.23 0 0 Z " fill="#FAFCFC" transform="translate(368,110)"/>
<path d="M0 0 C2.68 -0.28 5.13 -0.37 7.82 -0.33 C8.59 -0.33 9.36 -0.32 10.15 -0.32 C11.79 -0.32 13.42 -0.3 15.05 -0.28 C17.56 -0.25 20.06 -0.24 22.57 -0.23 C24.15 -0.23 25.73 -0.21 27.32 -0.2 C28.45 -0.2 28.45 -0.2 29.6 -0.19 C34.88 -0.12 34.88 -0.12 36 1 C36.14 5 36.04 8.99 36 13 C26.1 13.5 26.1 13.5 16 14 C15.67 21.59 15.34 29.18 15 37 C18.85 38.28 22.57 38.42 26.6 38.72 C29 39 29 39 30 40 C30.07 42.02 30.08 44.04 30.06 46.06 C30.05 47.17 30.04 48.27 30.04 49.41 C30.02 50.26 30.01 51.12 30 52 C29.41 51.98 28.82 51.95 28.21 51.93 C27.42 51.91 26.63 51.89 25.81 51.88 C25.04 51.85 24.26 51.83 23.46 51.8 C20.49 51.92 20.49 51.92 16 54 C15.67 61.92 15.34 69.84 15 78 C19.55 79.52 24.26 79.4 29.02 79.61 C34.9 79.9 34.9 79.9 36 81 C36.07 83.02 36.08 85.04 36.06 87.06 C36.05 88.17 36.04 89.27 36.04 90.41 C36.02 91.26 36.01 92.12 36 93 C30.91 93.07 25.82 93.13 20.73 93.16 C19 93.18 17.26 93.2 15.53 93.23 C13.04 93.26 10.56 93.28 8.07 93.29 C7.29 93.31 6.52 93.32 5.72 93.34 C3.53 93.34 3.53 93.34 0 93 C-2.54 89.19 -2.28 86.13 -2.26 81.72 C-2.26 80.88 -2.27 80.03 -2.27 79.16 C-2.28 76.37 -2.27 73.58 -2.27 70.78 C-2.27 68.84 -2.27 66.9 -2.27 64.96 C-2.27 60.9 -2.27 56.83 -2.26 52.77 C-2.25 47.55 -2.26 42.34 -2.27 37.12 C-2.28 33.12 -2.27 29.11 -2.27 25.11 C-2.27 23.18 -2.27 21.26 -2.27 19.34 C-2.28 16.65 -2.27 13.97 -2.26 11.28 C-2.26 10.48 -2.27 9.68 -2.27 8.86 C-2.24 5.04 -2.17 3.26 0 0 Z " fill="#FAFCFC" transform="translate(369,247)"/>
<path d="M0 0 C5.09 -0.05 10.18 -0.09 15.27 -0.11 C17 -0.12 18.74 -0.13 20.47 -0.15 C22.96 -0.18 25.44 -0.19 27.93 -0.2 C28.71 -0.21 29.48 -0.22 30.28 -0.23 C32.19 -0.23 34.1 -0.12 36 0 C38.61 2.61 38.24 4.47 38.27 8.03 C38 10 38 10 36 13 C34.15 13.4 34.15 13.4 31.94 13.44 C30.74 13.48 30.74 13.48 29.52 13.52 C28.69 13.54 27.86 13.55 27 13.56 C25.35 13.6 23.71 13.64 22.06 13.69 C20.97 13.71 20.97 13.71 19.85 13.73 C17.75 13.85 17.75 13.85 16 16 C15.63 18.13 15.63 18.13 15.59 20.57 C15.55 21.47 15.51 22.36 15.47 23.29 C15.42 24.69 15.42 24.69 15.38 26.12 C15.34 27.07 15.3 28.01 15.26 28.99 C15.16 31.33 15.08 33.66 15 36 C19.09 37.36 23.1 37.38 27.38 37.62 C28.68 37.81 28.68 37.81 30 38 C31.93 41.85 31.05 46.8 31 51 C26.38 51 21.76 51 17 51 C15.72 56.1 15.78 60.89 15.75 66.12 C15.73 67.14 15.71 68.15 15.69 69.2 C15.68 70.17 15.68 71.14 15.67 72.13 C15.66 73.02 15.65 73.9 15.64 74.82 C15.76 75.54 15.88 76.26 16 77 C20.34 79.89 24.86 79.39 29.93 79.48 C31.96 79.55 33.98 79.77 36 80 C38.11 83.17 38.25 84 38.19 87.62 C38.18 88.42 38.17 89.22 38.17 90.04 C38 92 38 92 37 93 C34.36 93.11 31.74 93.16 29.1 93.17 C28.3 93.17 27.51 93.17 26.69 93.18 C25.01 93.18 23.33 93.19 21.65 93.19 C19.08 93.19 16.5 93.21 13.92 93.22 C12.29 93.23 10.66 93.23 9.04 93.23 C7.87 93.24 7.87 93.24 6.69 93.25 C1.23 93.23 1.23 93.23 -1 91 C-1.19 88.43 -1.26 85.96 -1.24 83.39 C-1.24 82.6 -1.25 81.82 -1.25 81.01 C-1.25 78.4 -1.24 75.79 -1.23 73.18 C-1.23 71.37 -1.23 69.56 -1.23 67.74 C-1.23 63.93 -1.22 60.12 -1.21 56.31 C-1.19 51.44 -1.18 46.58 -1.19 41.71 C-1.19 37.96 -1.18 34.21 -1.17 30.45 C-1.17 28.66 -1.17 26.87 -1.17 25.08 C-1.16 22.56 -1.16 20.04 -1.15 17.52 C-1.15 16.79 -1.15 16.05 -1.15 15.3 C-1.12 10.14 -0.63 5.12 0 0 Z " fill="#FAFCFB" transform="translate(805,110)"/>
<path d="M0 0 C5.11 -0.02 10.22 -0.04 15.33 -0.05 C17.07 -0.06 18.8 -0.07 20.54 -0.08 C23.04 -0.09 25.53 -0.09 28.03 -0.1 C28.81 -0.1 29.59 -0.11 30.4 -0.11 C32.27 -0.11 34.13 -0.06 36 0 C37 1 37 1 37.13 3.47 C37.13 4.47 37.13 5.47 37.12 6.5 C37.13 8 37.13 8 37.13 9.53 C37 12 37 12 36 13 C34.51 13.16 33.02 13.25 31.53 13.32 C30.72 13.35 29.91 13.39 29.07 13.43 C28.04 13.47 27 13.52 25.94 13.56 C21.02 13.78 21.02 13.78 16 14 C15.67 21.26 15.34 28.52 15 36 C18.01 37 20.54 37.3 23.69 37.56 C24.68 37.65 25.68 37.73 26.7 37.82 C27.84 37.91 27.84 37.91 29 38 C29 38.66 29 39.32 29 40 C29.66 40 30.32 40 31 40 C31 43.63 31 47.26 31 51 C30 51.06 29 51.12 27.97 51.18 C26.68 51.27 25.39 51.35 24.06 51.44 C22.77 51.52 21.49 51.6 20.16 51.68 C17.14 51.65 17.14 51.65 16 53 C15.91 54.78 15.89 56.56 15.9 58.35 C15.91 59.97 15.91 59.97 15.91 61.62 C15.92 62.76 15.93 63.89 15.94 65.06 C15.94 66.2 15.95 67.34 15.95 68.52 C15.96 71.35 15.98 74.17 16 77 C16.66 77.33 17.32 77.66 18 78 C18 78.66 18 79.32 18 80 C19.81 79.98 19.81 79.98 21.65 79.96 C23.22 79.96 24.8 79.95 26.38 79.94 C27.17 79.93 27.96 79.92 28.78 79.91 C34.77 79.89 34.77 79.89 37 81 C37.03 82.81 37.05 84.62 37.06 86.44 C37.07 87.45 37.09 88.46 37.1 89.5 C37 92 37 92 36 93 C33.41 93.09 30.84 93.12 28.25 93.1 C27.47 93.1 26.7 93.09 25.9 93.09 C23.41 93.09 20.92 93.08 18.44 93.06 C16.76 93.06 15.07 93.05 13.39 93.05 C9.26 93.04 5.13 93.02 1 93 C-0.17 90.66 -0.18 89.11 -0.28 86.5 C-0.32 85.61 -0.36 84.73 -0.39 83.81 C-0.46 81.94 -0.54 80.06 -0.61 78.19 C-0.64 77.3 -0.68 76.41 -0.72 75.5 C-0.76 74.28 -0.76 74.28 -0.81 73.03 C-0.88 70.93 -0.88 70.93 -2 69 C-2.1 67.25 -2.13 65.5 -2.13 63.76 C-2.13 62.66 -2.14 61.57 -2.14 60.44 C-2.14 59.25 -2.13 58.07 -2.13 56.84 C-2.13 55.63 -2.13 54.42 -2.14 53.17 C-2.14 50.6 -2.13 48.03 -2.13 45.46 C-2.13 41.52 -2.13 37.57 -2.14 33.63 C-2.14 31.14 -2.13 28.65 -2.13 26.16 C-2.13 24.97 -2.14 23.78 -2.14 22.56 C-2.14 21.47 -2.13 20.37 -2.13 19.24 C-2.13 18.28 -2.13 17.31 -2.13 16.32 C-2 14 -2 14 -1 12 C-0.77 9.96 -0.59 7.92 -0.44 5.88 C-0.35 4.78 -0.27 3.68 -0.18 2.55 C-0.12 1.71 -0.06 0.87 0 0 Z " fill="#FAFCFB" transform="translate(1028,110)"/>
<path d="M0 0 C4.95 -0.02 9.9 -0.04 14.84 -0.05 C16.53 -0.06 18.21 -0.07 19.9 -0.08 C22.31 -0.09 24.73 -0.09 27.15 -0.1 C27.9 -0.1 28.66 -0.11 29.44 -0.11 C34.77 -0.11 34.77 -0.11 37 1 C37.03 2.81 37.05 4.62 37.06 6.44 C37.07 7.45 37.09 8.46 37.1 9.5 C37 12 37 12 36 13 C34.67 13.14 33.34 13.23 32 13.28 C31.2 13.32 30.39 13.36 29.56 13.39 C27.85 13.46 26.15 13.54 24.44 13.61 C23.63 13.64 22.83 13.68 22 13.72 C20.89 13.76 20.89 13.76 19.75 13.81 C17.97 13.82 17.97 13.82 17 15 C16.84 16.56 16.75 18.13 16.68 19.69 C16.64 20.64 16.6 21.58 16.56 22.55 C16.52 23.55 16.48 24.54 16.44 25.56 C16.39 26.56 16.35 27.56 16.31 28.58 C16.2 31.06 16.1 33.53 16 36 C19.86 37.29 23.56 37.37 27.6 37.62 C28.79 37.81 28.79 37.81 30 38 C31.93 41.85 31.05 46.8 31 51 C24.56 51.5 24.56 51.5 18 52 C17 55 16.88 56.97 16.9 60.11 C16.91 61.58 16.91 61.58 16.91 63.08 C16.92 64.11 16.93 65.13 16.94 66.19 C16.94 67.22 16.95 68.26 16.95 69.33 C16.96 71.88 16.98 74.44 17 77 C20.86 79.13 24.35 79.39 28.69 79.56 C35.88 79.88 35.88 79.88 37 81 C37.07 83.02 37.08 85.04 37.06 87.06 C37.05 88.17 37.04 89.27 37.04 90.41 C37.02 91.26 37.01 92.12 37 93 C32.05 93.05 27.1 93.09 22.16 93.11 C20.47 93.12 18.79 93.13 17.1 93.15 C14.69 93.18 12.27 93.19 9.85 93.2 C9.1 93.21 8.34 93.22 7.56 93.23 C5.71 93.23 3.85 93.12 2 93 C-1 90 -0.32 86.66 -0.33 82.63 C-0.35 81.77 -0.36 80.9 -0.37 80.01 C-0.41 77.14 -0.43 74.28 -0.45 71.41 C-0.47 69.42 -0.49 67.43 -0.52 65.44 C-0.56 61.27 -0.6 57.1 -0.63 52.93 C-0.68 47.58 -0.73 42.23 -0.79 36.87 C-0.84 32.77 -0.88 28.66 -0.92 24.56 C-0.94 22.58 -0.96 20.61 -0.98 18.63 C-1.01 15.88 -1.03 13.12 -1.05 10.37 C-1.06 9.54 -1.07 8.72 -1.08 7.87 C-1.11 2.23 -1.11 2.23 0 0 Z " fill="#FAFCFC" transform="translate(464,110)"/>
<path d="M0 0 C4.62 0 9.24 0 14 0 C15.46 2.92 15.15 5.5 15.17 8.76 C15.18 9.45 15.19 10.15 15.19 10.86 C15.21 12.37 15.22 13.88 15.23 15.39 C15.25 17.78 15.27 20.18 15.29 22.57 C15.37 29.37 15.43 36.17 15.48 42.97 C15.51 47.13 15.55 51.29 15.6 55.45 C15.61 57.03 15.63 58.61 15.63 60.2 C15.65 62.42 15.67 64.64 15.7 66.85 C15.71 68.12 15.72 69.38 15.73 70.68 C15.99 73.88 16.63 76.12 18 79 C18.92 79.06 19.83 79.12 20.77 79.18 C22.56 79.31 22.56 79.31 24.38 79.44 C25.56 79.52 26.74 79.6 27.96 79.68 C31 80 31 80 33 81 C33 84.96 33 88.92 33 93 C22.11 93 11.22 93 0 93 C-1.62 89.76 -1.14 86.2 -1.13 82.63 C-1.13 81.77 -1.13 80.9 -1.13 80.01 C-1.14 77.14 -1.14 74.28 -1.13 71.41 C-1.13 69.42 -1.13 67.43 -1.14 65.44 C-1.14 61.27 -1.14 57.1 -1.13 52.93 C-1.12 47.58 -1.13 42.23 -1.13 36.87 C-1.14 32.77 -1.14 28.66 -1.13 24.56 C-1.13 22.58 -1.13 20.61 -1.14 18.63 C-1.14 15.88 -1.13 13.12 -1.13 10.37 C-1.13 9.54 -1.13 8.72 -1.14 7.87 C-1.11 2.23 -1.11 2.23 0 0 Z " fill="#FAFCFC" transform="translate(424,247)"/>
<path d="M0 0 C2.31 -0.03 4.62 -0.05 6.94 -0.06 C8.23 -0.07 9.51 -0.09 10.84 -0.1 C14 0 14 0 15 1 C15.09 3.4 15.13 5.78 15.11 8.18 C15.11 8.93 15.11 9.68 15.11 10.46 C15.11 12.95 15.11 15.45 15.1 17.94 C15.1 19.67 15.09 21.39 15.09 23.12 C15.09 27.67 15.08 32.21 15.07 36.76 C15.06 41.4 15.05 46.04 15.05 50.68 C15.04 59.79 15.02 68.89 15 78 C16.29 78.13 17.58 78.27 18.9 78.4 C20.58 78.58 22.26 78.76 23.94 78.94 C24.79 79.02 25.64 79.11 26.51 79.2 C27.32 79.29 28.13 79.38 28.96 79.46 C29.71 79.54 30.46 79.62 31.23 79.7 C33 80 33 80 34 81 C34.07 83.02 34.08 85.04 34.06 87.06 C34.05 88.17 34.04 89.27 34.04 90.41 C34.02 91.26 34.01 92.12 34 93 C29.34 93.05 24.67 93.09 20.01 93.11 C18.42 93.12 16.84 93.13 15.25 93.15 C12.97 93.18 10.69 93.19 8.41 93.2 C7.7 93.21 6.99 93.22 6.26 93.23 C4.5 93.23 2.75 93.12 1 93 C-1.58 90.42 -1.24 88.71 -1.26 85.2 C-1.25 84.39 -1.25 83.58 -1.24 82.74 C-1.24 81.89 -1.25 81.03 -1.25 80.16 C-1.25 77.32 -1.24 74.49 -1.23 71.66 C-1.23 69.7 -1.23 67.73 -1.23 65.77 C-1.23 61.65 -1.22 57.53 -1.21 53.42 C-1.19 48.13 -1.18 42.85 -1.19 37.56 C-1.19 33.51 -1.18 29.45 -1.17 25.4 C-1.17 23.45 -1.17 21.5 -1.17 19.55 C-1.16 16.83 -1.16 14.11 -1.15 11.39 C-1.15 10.58 -1.15 9.77 -1.15 8.94 C-1.13 5.7 -1.03 3.09 0 0 Z " fill="#FAFCFC" transform="translate(1069,110)"/>
<path d="M0 0 C2.31 -0.03 4.62 -0.05 6.94 -0.06 C8.23 -0.07 9.51 -0.09 10.84 -0.1 C14 0 14 0 15 1 C15.1 3.86 15.13 6.7 15.11 9.56 C15.11 10.46 15.11 11.35 15.11 12.28 C15.11 15.26 15.11 18.24 15.1 21.22 C15.1 23.28 15.09 25.35 15.09 27.41 C15.09 32.84 15.08 38.28 15.07 43.72 C15.06 49.26 15.05 54.8 15.05 60.35 C15.04 71.23 15.02 82.12 15 93 C12.54 93.03 10.08 93.05 7.62 93.06 C6.93 93.07 6.23 93.08 5.51 93.09 C0.23 93.11 0.23 93.11 -2 92 C-2.05 81.19 -2.08 70.37 -2.1 59.56 C-2.11 54.54 -2.13 49.51 -2.15 44.49 C-2.17 39.64 -2.18 34.79 -2.19 29.94 C-2.19 28.1 -2.2 26.25 -2.21 24.4 C-2.23 21.81 -2.23 19.21 -2.23 16.62 C-2.23 15.86 -2.24 15.11 -2.25 14.33 C-2.23 9.25 -1.39 4.88 0 0 Z " fill="#FAFCFC" transform="translate(465,247)"/>
<path d="M0 0 C3.62 0.44 3.62 0.44 5.8 2.51 C8.03 6.09 8.22 8.56 8.38 12.75 C8.43 14 8.49 15.26 8.55 16.55 C8.57 17.5 8.6 18.46 8.62 19.44 C11.77 20.49 14.01 20.54 17.31 20.5 C19.94 20.47 19.94 20.47 22.62 20.44 C22.13 11.03 22.13 11.03 21.62 1.44 C22.28 1.77 22.95 2.1 23.62 2.44 C27.84 17.92 25.73 35.93 25.25 51.81 C25.22 53.02 25.19 54.23 25.16 55.47 C25.12 56.6 25.08 57.73 25.04 58.9 C25.01 59.92 24.98 60.94 24.94 61.99 C24.62 64.44 24.62 64.44 22.62 66.44 C22.6 65.75 22.57 65.05 22.55 64.34 C22.43 61.23 22.31 58.11 22.19 55 C22.15 53.91 22.11 52.82 22.07 51.7 C22.03 50.67 21.98 49.63 21.94 48.57 C21.9 47.61 21.87 46.65 21.83 45.66 C21.87 43.47 21.87 43.47 20.62 42.44 C18.44 42.2 16.25 42.02 14.06 41.88 C12.86 41.79 11.67 41.71 10.43 41.62 C9.04 41.53 9.04 41.53 7.62 41.44 C7.64 42.02 7.66 42.61 7.67 43.21 C7.74 45.87 7.77 48.53 7.81 51.19 C7.84 52.11 7.86 53.03 7.89 53.98 C7.9 54.87 7.91 55.76 7.92 56.67 C7.93 57.49 7.95 58.31 7.97 59.15 C7.54 62.04 6.68 63.38 4.62 65.44 C0.41 65.91 -2.08 66.13 -5.81 64.12 C-8.55 61.16 -8.51 58.25 -8.54 54.4 C-8.55 52.87 -8.55 52.87 -8.57 51.3 C-8.57 50.19 -8.57 49.09 -8.58 47.95 C-8.59 46.24 -8.59 46.24 -8.6 44.5 C-8.6 42.09 -8.61 39.68 -8.62 37.27 C-8.62 33.58 -8.66 29.9 -8.69 26.21 C-8.69 23.88 -8.7 21.54 -8.7 19.2 C-8.72 17.54 -8.72 17.54 -8.74 15.86 C-8.74 14.82 -8.73 13.79 -8.73 12.73 C-8.74 11.83 -8.74 10.92 -8.74 9.99 C-7.99 4.75 -5.34 0.69 0 0 Z " fill="#FAC51B" transform="translate(779.375,122.5625)"/>
<path d="M0 0 C2 0.31 2 0.31 4 1 C5.66 4.32 5.13 8.03 5.11 11.67 C5.11 12.57 5.11 13.47 5.11 14.39 C5.11 17.37 5.11 20.34 5.1 23.32 C5.1 25.38 5.09 27.44 5.09 29.5 C5.09 34.93 5.08 40.36 5.07 45.79 C5.06 51.32 5.05 56.86 5.05 62.39 C5.04 73.26 5.02 84.13 5 95 C0.38 95 -4.24 95 -9 95 C-10.65 91.7 -10.13 88.04 -10.11 84.42 C-10.11 83.09 -10.11 83.09 -10.11 81.73 C-10.11 78.79 -10.11 75.84 -10.1 72.9 C-10.1 70.86 -10.09 68.82 -10.09 66.79 C-10.09 61.42 -10.08 56.05 -10.07 50.68 C-10.06 45.2 -10.05 39.73 -10.05 34.25 C-10.04 23.5 -10.02 12.75 -10 2 C-9.04 1.91 -9.04 1.91 -8.07 1.82 C-6.83 1.69 -6.83 1.69 -5.56 1.56 C-4.74 1.48 -3.92 1.4 -3.07 1.32 C-1.01 1.21 -1.01 1.21 0 0 Z " fill="#FAFCFC" transform="translate(958,108)"/>
<path d="M0 0 C2.31 -0.03 4.62 -0.05 6.94 -0.06 C8.23 -0.07 9.51 -0.09 10.84 -0.1 C14 0 14 0 15 1 C15.1 3.86 15.13 6.7 15.11 9.56 C15.11 10.46 15.11 11.35 15.11 12.28 C15.11 15.26 15.11 18.24 15.1 21.22 C15.1 23.28 15.09 25.35 15.09 27.41 C15.09 32.84 15.08 38.28 15.07 43.72 C15.06 49.26 15.05 54.8 15.05 60.35 C15.04 71.23 15.02 82.12 15 93 C10.38 93 5.76 93 1 93 C-0.65 89.7 -0.13 86.04 -0.11 82.42 C-0.11 81.09 -0.11 81.09 -0.11 79.73 C-0.11 76.79 -0.11 73.84 -0.1 70.9 C-0.1 68.86 -0.09 66.82 -0.09 64.79 C-0.09 59.42 -0.08 54.05 -0.07 48.68 C-0.06 43.2 -0.05 37.73 -0.05 32.25 C-0.04 21.5 -0.02 10.75 0 0 Z " fill="#FAFCFC" transform="translate(610,110)"/>
<path d="M0 0 C1.86 -0.19 1.86 -0.19 3.75 -0.38 C4.79 -0.48 4.79 -0.48 5.86 -0.59 C8.61 0.17 9.78 1.51 11.22 3.93 C12.91 8.44 12.57 13.25 12.5 18 C12.52 19.07 12.53 20.13 12.55 21.23 C12.52 27.36 12.33 31.47 8 36 C4.44 36.62 4.44 36.62 1 36 C-1.36 33.71 -1.96 32.32 -2.37 29.04 C-2.37 27.91 -2.37 26.79 -2.36 25.62 C-2.36 24.39 -2.36 23.16 -2.36 21.89 C-2.35 20.61 -2.33 19.32 -2.31 18 C-2.32 16.72 -2.32 15.43 -2.32 14.11 C-2.26 3.69 -2.26 3.69 0 0 Z " fill="#FAC419" transform="translate(567,260)"/>
<path d="M0 0 C0 0.66 0 1.32 0 2 C0.66 2 1.32 2 2 2 C4.42 5.75 4.4 9.55 4.44 13.88 C4.47 14.57 4.5 15.26 4.54 15.98 C4.58 19.89 4.05 22.44 1.67 25.48 C-1 28 -1 28 -4.12 28.5 C-7 28 -7 28 -10 26 C-10.39 23.6 -10.39 23.6 -10.4 20.62 C-10.4 19.56 -10.41 18.49 -10.41 17.39 C-10.39 15.71 -10.39 15.71 -10.38 14 C-10.39 12.88 -10.4 11.76 -10.41 10.61 C-10.41 9.54 -10.4 8.47 -10.4 7.38 C-10.4 6.39 -10.39 5.41 -10.39 4.4 C-10.26 3.61 -10.13 2.82 -10 2 C-6.36 -0.43 -4.29 -0.16 0 0 Z " fill="#FAC61E" transform="translate(534,123)"/>
<path d="M0 0 C0.81 0 1.63 0 2.47 0.01 C3.32 0 4.18 0 5.06 0 C7.89 -0 10.73 -0 13.57 0 C15.53 0 17.5 0 19.46 -0 C23.58 -0 27.71 0 31.83 0.01 C37.12 0.01 42.42 0.01 47.71 0 C51.77 -0 55.83 -0 59.89 0 C61.84 0 63.79 0 65.74 -0 C68.47 -0 71.19 0 73.92 0.01 C74.73 0 75.54 0 76.38 0 C79.62 0.01 82.22 0.1 85.32 1.14 C85.32 1.8 85.32 2.46 85.32 3.14 C73.62 3.18 61.92 3.22 50.22 3.24 C44.79 3.25 39.36 3.26 33.93 3.29 C28.69 3.31 23.45 3.32 18.21 3.33 C16.21 3.33 14.21 3.34 12.2 3.35 C9.41 3.36 6.61 3.36 3.81 3.36 C2.98 3.37 2.14 3.38 1.28 3.38 C-4.45 3.36 -4.45 3.36 -6.68 1.14 C-4.87 -0.67 -2.4 0.01 0 0 Z " fill="#F4D45B" transform="translate(329.6756896972656,819.8644714355469)"/>
<path d="M0 0 C0.8 0 1.61 0 2.44 0 C3.7 -0 3.7 -0 4.99 -0.01 C7.79 -0.02 10.59 -0.02 13.39 -0.02 C15.33 -0.02 17.27 -0.03 19.21 -0.03 C23.28 -0.04 27.35 -0.04 31.43 -0.04 C36.65 -0.04 41.87 -0.05 47.09 -0.07 C51.1 -0.08 55.11 -0.08 59.12 -0.08 C61.04 -0.08 62.97 -0.09 64.89 -0.1 C67.59 -0.11 70.28 -0.1 72.97 -0.1 C73.77 -0.1 74.57 -0.11 75.39 -0.11 C79.2 -0.09 82.17 -0.01 85.4 2.15 C83.58 3.96 81.07 3.28 78.65 3.29 C77.41 3.29 77.41 3.29 76.15 3.29 C75.28 3.3 74.42 3.3 73.53 3.3 C70.65 3.31 67.78 3.31 64.9 3.31 C62.91 3.32 60.92 3.32 58.94 3.32 C54.76 3.33 50.58 3.33 46.41 3.33 C41.05 3.33 35.69 3.35 30.32 3.36 C26.21 3.37 22.1 3.38 17.99 3.38 C16.02 3.38 14.04 3.38 12.06 3.39 C9.3 3.4 6.54 3.4 3.78 3.39 C2.96 3.4 2.13 3.4 1.28 3.41 C-4.37 3.37 -4.37 3.37 -6.6 1.15 C-4.81 -0.64 -2.39 0.01 0 0 Z " fill="#F4D45B" transform="translate(871.6011199951172,819.8533630371094)"/>
<path d="M0 0 C1.24 -0 1.24 -0 2.5 -0.01 C5.24 -0.01 7.98 -0.01 10.72 -0 C12.62 -0 14.52 -0.01 16.41 -0.01 C20.4 -0.01 24.38 -0.01 28.36 -0 C33.47 0 38.58 0 43.69 -0 C47.61 -0.01 51.53 -0.01 55.45 -0 C57.34 -0 59.22 -0 61.11 -0.01 C63.74 -0.01 66.37 -0.01 69 0 C69.79 -0 70.57 -0 71.38 -0.01 C76.77 0.02 76.77 0.02 79 1.13 C79 1.79 79 2.45 79 3.13 C49.63 3.13 20.26 3.13 -10 3.13 C-10 2.47 -10 1.81 -10 1.13 C-6.84 -0.45 -3.46 -0.01 0 0 Z " fill="#F8EBB4" transform="translate(876.998046875,787.87060546875)"/>
<path d="M0 0 C0.66 0 1.32 0 2 0 C2 29.37 2 58.74 2 89 C1.01 88.67 0.02 88.34 -1 88 C-1.02 77.12 -1.04 66.23 -1.05 55.35 C-1.06 50.3 -1.06 45.24 -1.08 40.19 C-1.09 35.31 -1.09 30.44 -1.09 25.56 C-1.1 23.7 -1.1 21.84 -1.11 19.98 C-1.11 17.37 -1.11 14.77 -1.11 12.17 C-1.12 11.39 -1.12 10.62 -1.12 9.83 C-1.12 6.41 -1.08 3.26 0 0 Z " fill="#F8EBB4" transform="translate(464,251)"/>
<path d="M0 0 C0.82 -0 1.63 -0 2.47 -0.01 C5.18 -0.01 7.89 -0.01 10.59 -0 C12.47 -0 14.35 -0.01 16.22 -0.01 C20.15 -0.01 24.09 -0.01 28.02 -0 C33.07 0 38.13 0 43.18 -0 C47.05 -0.01 50.92 -0.01 54.8 -0 C56.66 -0 58.52 -0 60.39 -0.01 C62.99 -0.01 65.59 -0.01 68.19 0 C68.96 -0 69.74 -0 70.54 -0.01 C75.87 0.02 75.87 0.02 78.09 1.13 C78.09 1.79 78.09 2.45 78.09 3.13 C49.05 3.13 20.01 3.13 -9.91 3.13 C-9.91 2.47 -9.91 1.81 -9.91 1.13 C-6.77 -0.44 -3.44 -0.01 0 0 Z " fill="#F8EBB4" transform="translate(335.90625,787.87060546875)"/>
<path d="M0 0 C1.64 3.28 0.52 6.43 0 10 C-7.67 12.12 -15.05 12.47 -23 12 C-24 11 -24 11 -24.06 7.44 C-24.04 6.3 -24.02 5.17 -24 4 C-15.87 1.7 -8.51 -0.17 0 0 Z " fill="#FAFCFA" transform="translate(968,93)"/>
<path d="M0 0 C0 26.07 0 52.14 0 79 C-0.99 78.67 -1.98 78.34 -3 78 C-3 52.59 -3 27.18 -3 1 C-1 0 -1 0 0 0 Z " fill="#F8EBB3" transform="translate(551,261)"/>
<path d="M0 0 C0.33 0 0.66 0 1 0 C5.26 19.63 5.26 19.63 5 27 C3 29 3 29 0.56 29.25 C-2 29 -2 29 -5 27 C-6.56 18.73 -3.96 9.99 -2 2 C-1.34 2 -0.68 2 0 2 C0 1.34 0 0.68 0 0 Z " fill="#F9C726" transform="translate(621,282)"/>
<path d="M0 0 C4.44 8.36 4.5 17.72 5 27 C-1.05 27.2 -1.05 27.2 -3 27 C-5 25 -5 25 -5.21 21.86 C-4.99 17.87 -4.42 14.16 -3.62 10.25 C-3.37 8.96 -3.11 7.66 -2.85 6.33 C-2 3 -2 3 0 0 Z " fill="#F9C722" transform="translate(725,145)"/>
<path d="M0 0 C3 2 3 2 3.63 3.88 C3.75 4.62 3.86 5.37 3.98 6.14 C4.18 7.38 4.18 7.38 4.38 8.64 C4.56 9.93 4.56 9.93 4.75 11.25 C4.89 12.1 5.03 12.94 5.17 13.82 C5.87 18.47 6.12 22.35 5 27 C1.62 27.12 1.62 27.12 -2 27 C-4 25 -4 25 -4.08 22.89 C-3.29 15.12 -1.76 7.6 0 0 Z " fill="#F9C724" transform="translate(658,145)"/>
<path d="M0 0 C0.33 0 0.66 0 1 0 C1.33 10.89 1.66 21.78 2 33 C21.14 33.33 40.28 33.66 60 34 C60 34.66 60 35.32 60 36 C40.2 36 20.4 36 0 36 C0 24.12 0 12.24 0 0 Z " fill="#F6CD40" transform="translate(166,105)"/>
<path d="M0 0 C0.66 0 1.32 0 2 0 C2 13.53 2 27.06 2 41 C1.01 40.67 0.02 40.34 -1 40 C-1.02 34.62 -1.04 29.25 -1.05 23.87 C-1.06 22.05 -1.07 20.22 -1.08 18.39 C-1.09 15.76 -1.09 13.13 -1.1 10.51 C-1.1 9.69 -1.11 8.87 -1.11 8.02 C-1.11 2.23 -1.11 2.23 0 0 Z " fill="#F8EBB4" transform="translate(368,248)"/>
<path d="M0 0 C0 13.2 0 26.4 0 40 C-0.99 39.67 -1.98 39.34 -3 39 C-3 26.46 -3 13.92 -3 1 C-1 0 -1 0 0 0 Z " fill="#F8EBB3" transform="translate(370,111)"/>
<path d="M0 0 C0.33 0 0.66 0 1 0 C1.33 30.69 1.66 61.38 2 93 C1.34 93 0.68 93 0 93 C-1.3 89.11 -1.08 85.45 -1.02 81.4 C-1.01 80.52 -1 79.64 -0.99 78.74 C-0.96 75.83 -0.92 72.93 -0.88 70.02 C-0.85 68.01 -0.83 65.99 -0.81 63.98 C-0.74 58.68 -0.68 53.38 -0.61 48.07 C-0.53 42.66 -0.47 37.25 -0.4 31.85 C-0.28 21.23 -0.14 10.62 0 0 Z " fill="#F4D45B" transform="translate(626,110)"/>
<path d="M0 0 C0 11.22 0 22.44 0 34 C-0.99 33.34 -1.98 32.68 -3 32 C-3.34 28.93 -3.34 28.93 -3.29 25.02 C-3.29 24.34 -3.28 23.65 -3.28 22.95 C-3.26 20.76 -3.23 18.57 -3.19 16.38 C-3.17 14.89 -3.16 13.41 -3.15 11.92 C-3.11 8.28 -3.06 4.64 -3 1 C-1 0 -1 0 0 0 Z " fill="#F8EBB3" transform="translate(370,169)"/>
<path d="M0 0 C0 10.23 0 20.46 0 31 C-0.66 31.33 -1.32 31.66 -2 32 C-3.44 29.13 -3.11 26.66 -3.1 23.46 C-3.09 22.16 -3.09 20.86 -3.09 19.52 C-3.08 18.14 -3.07 16.76 -3.06 15.38 C-3.06 13.99 -3.05 12.6 -3.05 11.21 C-3.04 7.81 -3.02 4.4 -3 1 C-1 0 -1 0 0 0 Z " fill="#F8EBB3" transform="translate(370,307)"/>
<path d="M0 0 C0.33 0 0.66 0 1 0 C1 3.3 1 6.6 1 10 C0.67 10 0.34 10 0 10 C0 6.7 0 3.4 0 0 Z M-9.96 9.8 C-8.19 9.84 -8.19 9.84 -6.38 9.88 C-4.59 9.9 -4.59 9.9 -2.77 9.93 C-1.86 9.95 -0.94 9.98 0 10 C0 10.66 0 11.32 0 12 C-6.44 12.5 -6.44 12.5 -13 13 C-13 20.92 -13 28.84 -13 37 C-13.66 37 -14.32 37 -15 37 C-15.06 32.88 -15.09 28.75 -15.12 24.62 C-15.14 23.45 -15.16 22.27 -15.18 21.06 C-15.18 19.94 -15.19 18.82 -15.2 17.66 C-15.21 16.63 -15.22 15.59 -15.23 14.52 C-14.88 10.64 -13.78 10.05 -9.96 9.8 Z " fill="#F7CB36" transform="translate(399,151)"/>
<path d="M0 0 C0.33 0 0.66 0 1 0 C1.01 0.89 1.02 1.77 1.02 2.69 C1.1 11.06 1.19 19.43 1.29 27.8 C1.34 32.1 1.38 36.41 1.42 40.71 C1.46 44.87 1.51 49.02 1.56 53.18 C1.58 54.76 1.59 56.34 1.6 57.93 C1.62 60.15 1.65 62.37 1.68 64.6 C1.69 65.86 1.71 67.12 1.72 68.42 C2.02 72.26 2.82 75.35 4 79 C2.68 78.34 1.36 77.68 0 77 C0 51.59 0 26.18 0 0 Z " fill="#F8EBB4" transform="translate(438,249)"/>
<path d="M0 0 C0.66 0 1.32 0 2 0 C2 7.92 2 15.84 2 24 C1.01 23.67 0.02 23.34 -1 23 C-1.03 19.35 -1.05 15.71 -1.06 12.06 C-1.07 11.02 -1.08 9.98 -1.09 8.91 C-1.09 7.42 -1.09 7.42 -1.1 5.91 C-1.1 4.99 -1.11 4.08 -1.11 3.13 C-1 1 -1 1 0 0 Z " fill="#F5D14F" transform="translate(821,164)"/>
<path d="M0 0 C2.15 -0.03 4.29 -0.05 6.44 -0.06 C7.63 -0.07 8.83 -0.09 10.06 -0.1 C13 0 13 0 14 1 C14.25 4.81 14.19 8.62 14.19 12.44 C14.2 13.51 14.21 14.59 14.22 15.7 C14.23 17.24 14.23 17.24 14.23 18.81 C14.23 19.76 14.24 20.7 14.24 21.68 C14 24 14 24 12 26 C11.97 25.31 11.95 24.62 11.92 23.9 C11.81 20.79 11.69 17.68 11.56 14.56 C11.52 13.47 11.48 12.39 11.44 11.26 C11.4 10.23 11.36 9.19 11.32 8.13 C11.28 7.17 11.24 6.21 11.21 5.22 C11.24 3.03 11.24 3.03 10 2 C8.32 1.77 6.63 1.59 4.94 1.44 C4.02 1.35 3.1 1.27 2.15 1.18 C1.09 1.09 1.09 1.09 0 1 C0 0.67 0 0.34 0 0 Z " fill="#F4D45B" transform="translate(790,163)"/>
<path d="M0 0 C0.66 0 1.32 0 2 0 C2 7.26 2 14.52 2 22 C1.01 21.67 0.02 21.34 -1 21 C-1.03 17.69 -1.05 14.38 -1.06 11.06 C-1.07 10.12 -1.08 9.17 -1.09 8.2 C-1.09 7.3 -1.09 6.4 -1.1 5.47 C-1.1 4.64 -1.11 3.81 -1.11 2.95 C-1 1 -1 1 0 0 Z " fill="#F4D358" transform="translate(821,125)"/>
<path d="M0 0 C0.66 0 1.32 0 2 0 C3.2 4.69 3.13 9.22 3.1 14.02 C3.1 14.88 3.09 15.74 3.09 16.62 C3.09 19.35 3.08 22.08 3.06 24.81 C3.06 26.67 3.05 28.52 3.05 30.38 C3.04 34.92 3.02 39.46 3 44 C2.67 44 2.34 44 2 44 C1.98 42.89 1.96 41.78 1.94 40.64 C1.86 36.52 1.78 32.41 1.68 28.3 C1.64 26.52 1.61 24.74 1.58 22.96 C1.53 20.4 1.47 17.85 1.41 15.29 C1.4 14.09 1.4 14.09 1.38 12.87 C1.43 8.47 1.43 8.47 -1 5 C-0.62 2.38 -0.62 2.38 0 0 Z " fill="#F4D45B" transform="translate(527,297)"/>
<path d="M0 0 C0.33 0 0.66 0 1 0 C1 8.91 1 17.82 1 27 C5.46 27.99 5.46 27.99 10 29 C9.67 29.66 9.34 30.32 9 31 C5.69 31.25 5.69 31.25 2 31 C-0.42 28.72 -0.97 27.4 -1.25 24.07 C-1.19 22.96 -1.13 21.85 -1.07 20.7 C-1.02 19.5 -0.96 18.29 -0.91 17.05 C-0.84 15.8 -0.76 14.54 -0.69 13.25 C-0.63 11.98 -0.57 10.71 -0.5 9.4 C-0.35 6.27 -0.18 3.13 0 0 Z " fill="#F4D45B" transform="translate(566,265)"/>
<path d="M0 0 C0 5.94 0 11.88 0 18 C-0.66 18 -1.32 18 -2 18 C-3.53 14.93 -3.1 11.73 -3.06 8.38 C-3.06 7.67 -3.05 6.96 -3.05 6.23 C-3.04 4.49 -3.02 2.74 -3 1 C-1 0 -1 0 0 0 Z " fill="#F8EBB5" transform="translate(1029,163)"/>
<path d="M0 0 C2.15 -0.03 4.29 -0.05 6.44 -0.06 C7.63 -0.07 8.83 -0.09 10.06 -0.1 C13 0 13 0 14 1 C14.23 3.18 14.41 5.37 14.56 7.56 C14.65 8.76 14.73 9.96 14.82 11.19 C14.88 12.12 14.94 13.05 15 14 C14.01 14 13.02 14 12 14 C11.67 10.04 11.34 6.08 11 2 C7.37 1.67 3.74 1.34 0 1 C0 0.67 0 0.34 0 0 Z " fill="#F6CF46" transform="translate(445,109)"/>
<path d="M0 0 C0 4.62 0 9.24 0 14 C-0.99 13.67 -1.98 13.34 -3 13 C-3 9.04 -3 5.08 -3 1 C-1 0 -1 0 0 0 Z " fill="#F4D357" transform="translate(706,799)"/>
<path d="M0 0 C4.46 0.99 4.46 0.99 9 2 C9 1.34 9 0.68 9 0 C9.99 0.33 10.98 0.66 12 1 C11 4 11 4 9 5 C5.5 5.19 5.5 5.19 2 5 C1.34 4.34 0.68 3.68 0 3 C0 2.01 0 1.02 0 0 Z " fill="#F8ECBB" transform="translate(654,170)"/>
<path d="M0 0 C0.99 0.5 0.99 0.5 2 1 C3.54 1.22 5.08 1.41 6.62 1.56 C7.44 1.65 8.26 1.73 9.1 1.82 C9.73 1.88 10.35 1.94 11 2 C10.67 2.99 10.34 3.98 10 5 C3.95 5.2 3.95 5.2 2 5 C1.34 4.34 0.68 3.68 0 3 C0 2.01 0 1.02 0 0 Z " fill="#F8ECB7" transform="translate(720,170)"/>
<path d="M0 0 C0.33 0 0.66 0 1 0 C1.33 1.98 1.66 3.96 2 6 C5.63 6.66 9.26 7.32 13 8 C13 8.33 13 8.66 13 9 C11.02 9.03 9.04 9.05 7.06 9.06 C5.96 9.07 4.86 9.09 3.72 9.1 C1 9 1 9 0 8 C-0.14 5.33 -0.04 2.68 0 0 Z " fill="#F4D151" transform="translate(943,98)"/>
<path d="M0 0 C0.66 0 1.32 0 2 0 C2 3.63 2 7.26 2 11 C1.01 10.67 0.02 10.34 -1 10 C-1.12 2.25 -1.12 2.25 0 0 Z " fill="#F8ECB8" transform="translate(549,248)"/>
<path d="M0 0 C0.99 0.33 1.98 0.66 3 1 C3.05 2.46 3.09 3.92 3.12 5.38 C3.15 6.19 3.17 7 3.2 7.84 C3 10 3 10 1 12 C0.02 7.95 -0.08 4.16 0 0 Z " fill="#F4D45B" transform="translate(924,955)"/>
<path d="M0 0 C0.66 0.99 1.32 1.98 2 3 C2.66 2.01 3.32 1.02 4 0 C4 3.63 4 7.26 4 11 C0.14 7.14 0.14 7.14 -1 4 C-0.62 1.75 -0.62 1.75 0 0 Z " fill="#F4D45B" transform="translate(440,143)"/>
<path d="M0 0 C0.66 0 1.32 0 2 0 C2 3.3 2 6.6 2 10 C1.34 10 0.68 10 0 10 C-1.37 7.26 -1.13 5.03 -1 2 C-0.67 1.34 -0.34 0.68 0 0 Z " fill="#F8EDBE" transform="translate(824,685)"/>
<path d="M0 0 C2 2 2 2 2.2 3.95 C2.13 5.96 2.07 7.98 2 10 C1.01 9.67 0.02 9.34 -1 9 C-1.1 2.85 -1.1 2.85 -1 1 C-0.67 0.67 -0.34 0.34 0 0 Z " fill="#F4D45B" transform="translate(821,178)"/>
</svg>
